<?xml version="1.0" encoding="UTF-8" standalone="no"?>
<svg id="svg2" xmlns:rdf="http://www.w3.org/1999/02/22-rdf-syntax-ns#" xmlns="http://www.w3.org/2000/svg" viewBox="0 0 220.7 63.035" version="1.1" xmlns:cc="http://creativecommons.org/ns#" xmlns:xlink="http://www.w3.org/1999/xlink" xmlns:dc="http://purl.org/dc/elements/1.1/">
 <defs id="defs4">
  <style id="style4022" type="text/css">.fil0 {fill:black}
    .fil20 {fill:#E5C93A}
    .fil17 {fill:url(#id0)}
    .fil16 {fill:url(#id1)}
    .fil18 {fill:url(#id2)}
    .fil10 {fill:url(#id3)}
    .fil9 {fill:url(#id4)}
    .fil15 {fill:url(#id5)}
    .fil19 {fill:url(#id6)}
    .fil11 {fill:url(#id7)}
    .fil13 {fill:url(#id8)}
    .fil12 {fill:url(#id9)}
    .fil14 {fill:url(#id10)}
    .fil3 {fill:url(#id11)}
    .fil2 {fill:url(#id12)}
    .fil7 {fill:url(#id13)}
    .fil1 {fill:url(#id14)}
    .fil8 {fill:url(#id15)}
    .fil4 {fill:url(#id16)}
    .fil5 {fill:url(#id17)}
    .fil6 {fill:url(#id18)}</style>
  <linearGradient id="linearGradient23343" y2="-2187.7" spreadMethod="reflect" gradientUnits="userSpaceOnUse" x2="2982.3" y1="-2171.9" x1="2982.3">
   <stop id="stop22305" stop-color="#f9ab23" offset="0"/>
   <stop id="stop22307" stop-color="#fcd430" offset="1"/>
  </linearGradient>
 </defs>
 <metadata id="metadata7">
  <rdf:RDF>
   <cc:Work rdf:about="">
    <dc:format>image/svg+xml</dc:format>
    <dc:type rdf:resource="http://purl.org/dc/dcmitype/StillImage"/>
    <dc:title/>
   </cc:Work>
  </rdf:RDF>
 </metadata>
 <g id="layer1" transform="translate(-2874.0884,2231.209)">
  <g id="g23332" transform="matrix(0.93589877,0,0,0.93589877,191.30604,-141.00294)">
   <path id="path22714" fill-rule="evenodd" fill="#db212c" d="m3064.9-2213.5,0-0.2462,0.01-0.2338,0.017-0.225,0.023-0.2137,0.03-0.2025,0.037-0.1925,0.041-0.18,0.048-0.1663,0,0,0.1325-0.2675,0.22-0.425,0.2125-0.385,0.2038-0.3475,0.1962-0.31,0.1875-0.275,0.1763-0.2387,0.1675-0.2063,0.1562-0.1775,0.1488-0.1487,0.1375-0.1275,0.1325-0.1063,0.1287-0.091,0.13-0.081,0.1363-0.074,0.1437-0.066,0.1613-0.064,0.1825-0.06,0.205-0.055,0.2325-0.05,0.2612-0.045,0.295-0.038,0.3275-0.03,0.3588-0.021,0.3912-0.013,0.4263,0,0.4612,0.01,0.4925,0.016,0.525,0.026,0.5613,0.035,0.07,0.01,0.024,0.18,0.019,0.26,0.01,0.3088-0.01,0.3525-0.024,0.3887-0.04,0.4263-0.2212,1.8762,1.3612,1.995,1.37,0.805,1.1938,0.2663,1.0437-0.016,0.9838-0.2137,0.995-0.445,1.005-0.7825,1.11-1.6075,0.029-1.625,0.025-0.3913,0.04-0.3587,0.055-0.325,0.065-0.29,0.075-0.2575,0.085-0.23,0.092-0.2075,0.099-0.1838,0.1062-0.1675,0.1175-0.1575,0.1325-0.15,0.15-0.1462,0.1725-0.1463,0.2013-0.145,2.0962-1.3-0.068-2.6325-0.077-0.6687-0.1362-0.6463-0.1863-0.615-0.235-0.5762-0.2712-0.535-0.3025-0.4913-0.3325-0.4537-0.3525-0.41-0.3675-0.3688-0.3813-0.33-0.3975-0.2975-0.4112-0.2625-0.425-0.23-0.4475-0.1962-2.8488-0.9763-1.6887,2.5513-0.115,0.1562-0.09,0.1063,0,0.01-0.03,0-0.1275-0.021-0.275-0.1125-0.5613-0.2213-0.57-0.2187-0.5825-0.2125-0.59-0.205-0.5975-0.195-0.6075-0.1863-0.6187-0.1737-0.6275-0.1588-0.6363-0.145-0.6462-0.1275-0.6563-0.11-0.665-0.089-0.6725-0.067-0.6837-0.043-0.6938-0.017-0.7012,0.011-0.7075,0.04-0.7125,0.072-0.72,0.1038-0.7238,0.14-0.7237,0.175-0.725,0.21-0.7275,0.25-0.7263,0.2887-0.7225,0.325-0.72,0.3675-0.715,0.405-0.7112,0.4488-0.7038,0.485-0.6975,0.5275-0.72,0.5912-0.735,0.6813-0.7,0.7637-0.6362,0.8125-0.57,0.8488-0.5088,0.885-0.4475,0.9125-0.3912,0.9362-0.3363,0.955-0.2825,0.9738-0.2312,0.9887-0.1825,0.9975-0.1325,1.0075-0.087,1.0125-0.039,1.0188,0.01,1.02,0.051,1.015,0.094,1.0137,0.14,1.0088,0.185,1.0012,0.23,0.9888,0.275,0.9762,0.3225,0.9613,0.37,0.9436,0.4187,0.9195,0.4663,0.896,0.5212,0.8681,0.5725,0.8374,0.6288,0.7979,0.6837,0.7559,0.7438,0.708,0.8012,0.6542,0.97,0.6651,0.8313,0.3925,0.5925,0.2715,0.5937,0.2642,0.5938,0.2545,0.5937,0.2465,0.5963,0.2358,0.5975,0.2257,0.5962,0.2128,0.6,0.2027,0.605,0.1885,0.6063,0.1747,0.6075,0.1588,0.6112,0.1445,0.615,0.126,0.6175,0.1078,0.6163,0.088,0.6612,0.074,0.6575,0.054,0.6575,0.036,0.6588,0.015,0.655,0,0.6562-0.023,0.6563-0.042,0.6537-0.061,0.6538-0.08,0.6525-0.098,0.6525-0.1162,0.6512-0.1343,0.6513-0.1518,0.6512-0.1689,0.6525-0.1861,0.6513-0.2022,0.6525-0.2177,0.6525-0.2344,0.655-0.2495,0.6587-0.2646,0.6588-0.2808,0.6637-0.295,0.665-0.309,0.6713-0.3242,0.6737-0.3389,0.6788-0.353,0.685-0.3657,0.6912-0.3814,0.6975-0.3935,0.705-0.4078,0.7125-0.4218,1.6738-1.0118,0.73-1.6542,0.3125-1.2759-0.41-2.3758-2.13-1.5162-1.5138-0.065-0.6225,0.1087-0.2062,0.051-0.3725,0.077-0.375,0.1462-0.1175,0.045-0.1163,0.046-0.1175,0.045-0.1175,0.045-0.1562,0.06-0.6238,0.16-0.815,0.2025-0.8225,0.195-0.8275,0.1862-0.8325,0.175-0.83,0.1613-0.8287,0.145-0.8225,0.1262-0.815,0.1075-0.8,0.084-0.7875,0.059-0.7688,0.034-0.745,0.01-0.72-0.023-0.6925-0.051-0.66-0.081-0.6275-0.1112-0.5875-0.1388-0.55-0.1687-0.5125-0.195-0.4725-0.2213-0.4362-0.25-0.4038-0.2775-0.3762-0.31-0.3513-0.3462-0.3325-0.39-0.3137-0.4438-0.2963-0.5062-0.2775-0.5788-0.2537-0.66-0.2275-0.7475-0.2025-0.88-0.048-0.2525-0.046-0.2862-0.039-0.2813-0.03-0.2737-0.023-0.27-0.014-0.2613-0.01-0.2525zm-34.049,21.108,0.8887,0.6265,0.9838,0.3916,2.1725,0.3408,1.5475-1.2534,0.3175-0.2471,0.3137-0.2354,0.3138-0.2231,0.3125-0.2139,0.3137-0.2026,0.3113-0.1914,0.31-0.1806,0.3075-0.1685,0.31-0.1596,0.3062-0.147,0.3063-0.1358,0.305-0.126,0.3075-0.1161,0.305-0.1041,0.3037-0.093,0.3025-0.082,0.3038-0.072,0.3075-0.062,0.3075-0.052,0.3075-0.04,0.3112-0.03,0.3138-0.019,0.3162-0.01,0.3175,0,0.325,0.014,0.3313,0.026,0.3337,0.037,0.3375,0.05,0.3463,0.063,0.3537,0.077,1.4588,0.3642,1.7425-0.6547,1.0762-0.8053,0.7838-1.1645,0.3462-1.2016,0.037-0.9907-0.092-0.7539-0.135-0.5768-0.5587-1.8647-1.6538-0.8671-0.1712-0.106-0.13-0.095-0.1-0.084-0.071-0.072-0.054-0.062-0.044-0.062-0.043-0.07-0.041-0.081-0.043-0.098-0.043-0.1202-0.044-0.15-0.044-0.18-0.041-0.2075-0.04-0.235-0.059-0.4262-0.115-0.5513-0.071-0.3837-0.061-0.3913-0.054-0.3987-0.047-0.4025-0.038-0.4075-0.031-0.4138-0.024-0.4187-0.017-0.425-0.011-0.4288,0-0.4325,0-0.4412,0.01-0.445,0.011-0.4488,0.017-0.4512,0.021-0.4588,0.025-0.4625,0.029-0.465,0.033-0.4675,0.036-0.4737,0.035-0.4775,0.04-0.48,0.04-0.4825,0.041-0.4875,0.041-0.49,0.043-0.4913,0.04-0.495,0.04-0.4987,0.037-0.5013,0.036-0.5025,0.032-0.505,0.043-0.7037-0.023-0.4038,0-0.015,0-0.01,0.01-0.014,0.01-0.028,0.024-0.046,0.039-0.066,0.059-0.088,0.081-0.1062,0.105-0.1225,0.1313-0.1388,0.155-0.1525,0.1787-0.1625,0.2025-0.1725,2.51-2.035-1.3625-2.8162-0.1137-0.2488-0.2288-0.4475-0.3987-0.615-0.6275-0.6787-0.8388-0.59-0.9475-0.39-1.5512-0.3013-1.2075,0.3925-0.32,0.099-0.3175,0.088-0.32,0.082-0.3175,0.074-0.3163,0.068-0.3162,0.06-0.32,0.054-0.32,0.048-0.3163,0.04-0.3175,0.034-0.3175,0.028-0.3212,0.02-0.3213,0.016-0.3175,0.01-0.3225,0-0.325,0-0.3225-0.01-0.3237-0.014-0.3275-0.019-0.3275-0.025-0.325-0.03-0.3288-0.035-0.3312-0.041-0.3338-0.046-0.3325-0.05-0.335-0.056-0.335-0.06-0.3375-0.065-0.3362-0.069-0.34-0.074-1.3025-0.3025-1.375,0.4575-0.6575,0.2988-0.7275,0.47-0.73,0.7037-0.6138,0.9488-0.3712,1.0887-0.1125,1.0801,0.235,2.7599,2.1087,1.0613,0.2913,0.15,0.2687,0.1437,0.25,0.14,0.2288,0.1375,0.2075,0.1325,0.19,0.1325,0.1675,0.1263,0.1475,0.125,0.1337,0.1237,0.12,0.125,0.1075,0.1263,0.097,0.1287,0.041,0.565,0.064,0.7487,0.071,0.7638,0.074,0.7812,0.08,0.795,0.08,0.8075,0.077,0.8163,0.073,0.825,0.067,0.8262,0.059,0.8313,0.048,0.8262,0.036,0.82,0.021,0.8125,0.01,0.7988-0.014,0.7812-0.032,0.7613-0.055,0.735-0.076,0.7075-0.096,0.6725-0.1213,0.634-0.1425,0.5942-0.1625,0.5484-0.1812,0.499-0.2,0.4493-0.2138,0.4013-0.2287,0.3544-0.24,0.3101-0.2588,0.2744-0.28,0.2446-0.31,0.2198-2.61,1.4736,0.3725,3.0494,0.18,0.7826,0.3063,0.8228,0.4825,0.8321,0.6925,0.7841zm-10.639-35.393-0.2225,0.1313-0.2175,0.1175-0.2112,0.105-0.2038,0.09-0.1887,0.071-0.18,0.057-0.1675,0.041-0.155,0.028-0.1413,0.014-0.1337,0-0.065-0.01-0.1813-0.035-0.3275-0.079-0.3387-0.095-0.3513-0.1075-0.365-0.1225-0.38-0.1363-0.3975-0.1475-0.4175-0.1562-0.4375-0.165-0.455-0.17-0.4787-0.1688-0.5038-0.17-0.5287-0.1637-0.5525-0.1538-0.5788-0.1387-0.82-0.1638-0.85-0.021-0.5637-0.013-0.5663-0.01-0.5662,0-0.57,0-0.57,0.011-0.57,0.02-0.5725,0.031-0.5763,0.041-0.575,0.054-0.575,0.065-0.5787,0.084-0.58,0.099-0.5788,0.115-0.58,0.1362-0.58,0.1575-0.5812,0.18-0.5763,0.2025-0.575,0.2275-0.5712,0.2563-0.5663,0.2837-0.5587,0.31-0.5513,0.34-0.5412,0.37-0.53,0.4013-0.5175,0.4287-0.5063,0.46-0.4887,0.49-0.475,0.5175-0.4588,0.5463-0.4425,0.5762-0.5325,0.7563-0.31,0.605-0.2,0.4175-0.1937,0.425-0.1813,0.4287-0.1725,0.435-0.16,0.4375-0.1525,0.4438-0.14,0.4487-0.1325,0.4538-0.12,0.46-0.1112,0.4637-0.099,0.4675-0.089,0.47-0.077,0.475-0.069,0.4838-0.055,0.4812-0.046,0.485-0.036,0.4925-0.024,0.495-0.014,0.4975,0,0.5,0.01,0.505,0.017,0.5088,0.029,0.5087,0.039,0.515,0.05,0.5188,0.06,0.5212,0.07,0.5213,0.081,0.5287,0.091,0.53,0.1012,0.5325,0.16,0.7675,0.3825,1.0475,0.1,0.2475-0.4587-0.8062-0.4888-0.8925-0.445-0.8525-0.4075-0.815-0.3712-0.7788-0.335-0.745-0.3025-0.7112-0.2725-0.685-0.2454-0.655-0.2198-0.6313-0.1962-0.6062-0.1758-0.5913-0.1582-0.5712-0.1406-0.5588-0.1265-0.5462-0.1143-0.54-0.1035-0.5363-0.096-0.5325-0.089-0.5337-0.084-0.5388-0.081-0.5462-0.079-0.5525-0.081-0.565-0.084-0.5775-0.089-0.5913-0.095-0.6025-0.1055-0.6225-0.1919-1.0537-0.6114-1.3575-0.6411-1.0225-0.8218-0.9025-0.981-0.6975-1.0092-0.4238-0.872-0.19-0.6403-0.062-0.6732-0.037-0.8125,0.066-0.5714,0.044-0.5679,0.041-0.5668,0.037-0.5659,0.034-0.5625,0.031-0.56,0.026-0.5591,0.023-0.5572,0.017-0.5532,0.013-0.5518,0.01-0.5502,0-0.5469,0-0.5445-0.01-0.5439-0.017-0.5435-0.024-0.5395-0.031-0.5362-0.038-0.5356-0.046-0.5342-0.054-0.5322-0.061-0.5288-0.071-0.5273-0.079-0.5274-0.089-0.5259-0.098-0.523-0.1063-0.5229-0.1175-0.521-0.1275-0.5205-0.1375-0.5181-0.1487-0.5175-0.16-2.3394-0.775-1.8481,1.4875-0.4702,0.4387-0.4873,0.5588-0.4776,0.725-0.3945,0.9287-0.208,1.0938,0.053,1.1475,0.5405,1.9512,1.3848,0.9963,0.395,0.27,0.4014,0.2637,0.4033,0.25,0.4087,0.2438,0.4121,0.235,0.4165,0.2275,0.42,0.22,0.4237,0.2137,0.4258,0.205,0.252,0.1176-0.5806,0.2087-0.7813,0.4788-0.6459,0.5812-0.5235,0.6425-0.4185,0.6825-0.3335,0.7137-0.2651,0.7475-0.1821,0.6825-0.098,0.3925-0.084,0.2838-0.1,0.2875-0.1147,0.2975-0.1294,0.3037-0.1435,0.3088-0.1562,0.315-0.1719,0.3238-0.1851,0.3325-0.1943,0.335-0.2061,0.3437-0.2163,0.3525-0.2251,0.3612-0.23,0.3663-0.2369,0.3737-0.2431,0.3875-0.2456,0.3976-0.2446,0.4062-0.2452,0.4187-0.2431,0.4325-0.2397,0.4501-0.2324,0.4625-0.2231,0.48-0.209,0.4937-0.1324-0.3125-0.4288-0.99-0.4311-0.9763-0.4331-0.9637-0.434-0.9463-0.4356-0.9324-0.435-0.915-0.4352-0.8988-0.4326-0.8788-0.4306-0.8612-0.4283-0.8412-0.4257-0.8188-0.4204-0.7988-0.416-0.7749-0.4111-0.7538-0.1441-0.2575-0.034-0.1663-0.055-0.3125-0.048-0.3237-0.043-0.3362-0.038-0.35-0.033-0.3613-0.028-0.3737-0.024-0.3851-0.023-0.4024-0.021-0.4126-0.021-0.4212-0.021-0.4337-0.023-0.4501-0.025-0.4575-0.017-0.2575,0.027-0.6562-0.052-1.045-0.2705-1.2713-0.7935-1.4887-1.5039-1.1725-1.687-0.3863-1.3999,0.1226-1.0625,0.2987-0.2056,0.067-0.059,0.015-0.066,0.014-0.075,0.012-0.086,0.01-0.093,0.01-0.105,0-0.1196,0-0.1294,0-0.1357-0.01-0.148-0.015-0.1607-0.017-0.1698-0.024-0.1803-0.027-0.1884-0.031-0.2178-0.039-0.6983-0.1199-0.6816-0.1063-0.646-0.089-0.6176-0.075-0.5914-0.062-0.5669-0.051-0.5464-0.044-0.5282-0.037-0.5143-0.032-0.5033-0.031-0.4962-0.029-0.497-0.034-0.503-0.036-0.5156-0.041-0.5331-0.05-1.1744-0.1238-1.499,0.3626-1.1641,0.8362-0.7383,0.86-0.5415,0.9313-0.3911,1.1162-0.1474,1.465,0.4829,1.8637,1.1791,1.2688,0.6665,0.4113,0.2487,0.1549,0.2461,0.1551,0.2455,0.1574,0.2451,0.1588,0.2433,0.16,0.2411,0.16,0.2412,0.1613,0.2398,0.1625,0.2367,0.1637,0.2374,0.165,0.2373,0.1675,0.2358,0.1675,0.2329,0.1675,0.1348,0.099,0.058,0.077,0.061,0.091,0.052,0.086,0.045,0.085,0.038,0.079,0.033,0.082,0.03,0.086,0.025,0.089,0.01,0.028-0.061,0.094-0.2305,0.3512-0.228,0.3462-0.2241,0.3375-0.2226,0.3288-0.2228,0.3238-0.2196,0.3125-0.2188,0.3037-0.2183,0.2925-0.2183,0.2838-0.2157,0.2725-0.2154,0.2587-0.2144,0.2462-0.2147,0.2363-0.1114,0.1138-0.1465,0.1474-0.2124,0.2175-0.2915,0.325-0.3442,0.4663-0.3458,0.6225-0.2695,0.755-0.019,0.1075-0.047-0.01-1.1861,0.032-1.3251,0.4725-1.0084,0.8563-0.057-0.1-0.4453-0.7838-0.4556-0.8025-0.4634-0.82-0.4711-0.8325-0.4776-0.8413-0.4814-0.8462-0.4859-0.8475-0.4887-0.8463-0.4898-0.8399-0.4902-0.8313-0.4903-0.8187-0.4882-0.8013-0.4864-0.7838-0.4829-0.7612-0.4805-0.7375-0.477-0.71-0.4741-0.6787-0.4726-0.6488-0.4731-0.615-0.4762-0.5825-0.4843-0.5488-0.5059-0.52-0.5464-0.495-0.6132-0.4674-0.7379-0.4351-0.934-0.3612-0.8091-0.1138-0.5889-0.03c-4.0953,0.3574-8.1768,0.2637-12.276-0.1126l-0.8471,0.023-1.1358,0.3001-0.9702,0.5512-0.7104,0.565-0.5865,0.58-0.5131,0.6138-0.4731,0.6974-0.4767,0.9701-0.8765,4.48,4.2272,0.6237,0.4116,0.08,0.3564,0.089,0.2945,0.094,0.2318,0.094,0.1675,0.085,0.1074,0.067,0.057,0.046,0.022,0.024,0.01,0.01,0.01,0.018,0.02,0.05,0.029,0.1113,0.027,0.1938,0.012,0.2887-0.01,0.1288-0.074,0.2712-0.1742,0.6-0.1729,0.5625-0.1714,0.525-0.169,0.49-0.166,0.4537-0.165,0.4238-0.1636,0.3975-0.1596,0.3687-0.1573,0.3413-0.1557,0.3212-0.1568,0.3051-0.1547,0.2874-0.1529,0.27-0.1558,0.2613-1.0132,1.6388,0.545,2.0324-0.07,0.031-1.2241,1.315-0.4506,1.4037-0.2017,0.6188-0.2027,0.6169-0.2031,0.6139-0.204,0.6117-0.2067,0.6094-0.205,0.6065-0.208,0.6058-0.2071,0.6032-0.2085,0.5986-0.2094,0.5976-0.211,0.5972-0.2105,0.5937-0.2113,0.5914-0.2124,0.5897-0.2139,0.5884-0.2149,0.588-0.2143,0.5844-0.2153,0.583-0.2159,0.5806-0.2172,0.581-0.2173,0.5773-0.2183,0.5776-0.2197,0.5756-0.2197,0.5763-0.2203,0.5727-0.2207,0.5712-0.2216,0.5713-0.2212,0.5699-0.2232,0.5683-0.2226,0.5684-0.1084,0.2744-0.2226,0.3652-0.3863,0.6358-0.3809,0.621-0.3798,0.604-0.3804,0.584-0.3848,0.562-0.3901,0.5386-0.4,0.5128-0.4101,0.4857-0.4214,0.4556-0.438,0.4278-0.458,0.3994-0.4819,0.373-0.5093,0.3442-0.5444,0.3189-1.7451,0.8672-0.98,1.9238-0.2539,1.4229,0.1137,1.3412,0.4278,1.2451,0.769,1.1559,1.2187,0.9839,1.6998,0.5214,1.9926-0.2929,1.0118-0.7651,0.2646-0.19,0.2696-0.1841,0.2729-0.1763,0.2794-0.1684,0.2866-0.1651,0.2939-0.1568,0.2988-0.1498,0.3067-0.143,0.3153-0.1383,0.3238-0.1314,0.3325-0.1234,0.3394-0.1167,0.3506-0.1099,0.3612-0.1026,0.3683-0.095,0.3794-0.086,0.3935-0.08,0.4053-0.071,0.4135-0.062,0.4273-0.054,0.4405-0.045,0.4511-0.035,0.4649-0.026,0.478-0.016h0.4907,0.5068l0.5186,0.016,0.5336,0.027,0.5489,0.038,0.5615,0.05,1.2905,0.1386,1.9156-0.5669,1.3705-1.4673,0.5835-1.4736,0.1495-1.3335-0.1411-1.294-0.4897-1.356-1.0562-1.3788-1.5498-0.8292-0.2017-0.03v-0.032l-0.02-0.4404-0.01-0.4497,0.01-0.4604,0.024-0.4717,0.038-0.4805,0.055-0.4907,0.069-0.5045,0.086-0.5141,0.101-0.5234,0.1168-0.5347,0.1332-0.5469,0.1495-0.5561,0.165-0.5654,0.1822-0.5762,0.1982-0.5869,0.2144-0.5966,0.2309-0.6075,0.2466-0.6143,0.2636-0.6255,0.2799-0.6367,0.2944-0.643,0.311-0.6524,0.3277-0.6631,0.3423-0.6704,0.3573-0.6791,0.3735-0.6875,0.3893-0.6969,0.4032-0.705,0.4952-0.8433,0.587-1.1861-0.1002-1.8886-0.2612-0.5855,0.164-0.075,1.046-0.9,0.4306-0.6763,0.1265-0.1737,0.2129-0.3137,0.2036-0.3163,0.1929-0.3213,0.185-0.3262v-0.01l0.3585,0.3174,0.5668,0.5938,0.5948,0.7138,0.6097,0.8224,0.6178,0.9265,0.6181,1.0167,0.6163,1.102,0.6083,1.1739,0.5977,1.2377,0.5845,1.292,0.5703,1.3394,0.5537,1.376,0.5352,1.4062,0.5156,1.4268,0.4955,1.4388,0.4733,1.4429,0.4506,1.44,0.4263,1.4278,0.4008,1.4081,0.3755,1.3795,0.3487,1.3437,0.3203,1.2993,0.2929,1.2471,0.2623,1.1845,0.2323,1.1158,0.2008,1.0371,0.168,0.9467,0.1342,0.8472,0.1007,0.73,0.074,0.6767,0.096,0.8379,0.3668,1.129,0.6112,1.0464,0.8932,0.9223,1.2308,0.7012,1.545,0.273,1.6187-0.3555,1.0381-0.7173,0.6655-0.6109,0.4824-0.4438,0.4833-0.4434,0.482-0.4437,0.4829-0.4444,0.483-0.4434,0.4834-0.4439,0.4819-0.4444,0.4833-0.4432,0.4825-0.4439,0.4834-0.4439,0.4824-0.4433,0.4834-0.4439,0.483-0.4448,0.4833-0.4448,0.3828-0.3525,0.44-0.3463,0.623-0.6366,0.5191-0.6987,0.396-0.7154,0.2803-0.6845,0.186-0.6193,0.1177-0.5224,0.2593-1.3995-0.5084-1.3998-0.1753-0.4673-0.1796-0.4672-0.1851-0.4669-0.1895-0.4647-0.1943-0.4664-0.1997-0.4683-0.2036-0.4658-0.207-0.4643-0.2124-0.4664-0.2169-0.4662-0.2216-0.4669-0.2251-0.4662-0.2295-0.4664-0.2334-0.4653-0.2154-0.4248-0.2147-0.4419-0.1627-0.3765-0.1328-0.3515-0.1064-0.3281-0.082-0.3043-0.061-0.29-0.045-0.2803-0.03-0.2676-0.014-0.2587v-0.2618l0.011-0.268,0.023-0.2715,0.035-0.2789,0.048-0.2948,0.061-0.3115,0.072-0.3238,0.085-0.335,0.097-0.3584,0.1094-0.3793,0.1167-0.3947,0.1255-0.4124,0.1319-0.4347,0.1366-0.455,0.1373-0.4746,0.1386-0.4951,0.1363-0.52,0.1303-0.5396,0.1227-0.5616,0.1122-0.5859,0.1-0.6079,0.083-0.6299,0.019-0.1947,0.816,0.027,0.9502-0.1996,0.3432-0.1529,0.1675,0.2685,0.2686,0.439,0.267,0.4454,0.2657,0.4521,0.2637,0.4585,0.2608,0.4624,0.2582,0.4702,0.2569,0.4746,0.2544,0.4814,0.2525,0.4878,0.25,0.4932,0.2475,0.5,0.2456,0.5049,0.2416,0.5113,0.2418,0.5185,0.2382,0.5243,0.2369,0.5323,0.2339,0.5376,0.2313,0.5425,0.2277,0.5492,0.2275,0.5577,0.2236,0.563,0.2212,0.5689,0.2188,0.5776,0.2172,0.583,0.2139,0.5903,0.2114,0.5967,0.209,0.6035,0.2066,0.6104,0.2026,0.6172,0.2012,0.624,0.1455,0.4639,0.071,0.3427,0.094,0.4903,0.082,0.4662,0.068,0.4415,0.053,0.4112,0.036,0.3763,0.02,0.3399v0.2964l-0.01,0.2486-0.02,0.1919-0.023,0.1366-0.016,0.06-0.049,0.046-0.2368,0.2226-0.2334,0.2169-0.229,0.2104-0.2276,0.2056-0.2251,0.1988-0.2153,0.1883-0.2163,0.1827-0.2144,0.1777-0.2055,0.1651-0.1998,0.1548-0.1952,0.146-0.1895,0.1357-0.1811,0.124-0.1695,0.1104-1.5122,0.9184-0.502,2.252-0.074,1.0742,0.1885,1.2774,0.6436,1.3515,1.1025,1.0679,1.2339,0.5683,1.1162,0.1909,1.8858-0.032,1.1152-0.854,0.163-0.1177,0.1714-0.1157,0.1764-0.1123,0.187-0.1113,0.1991-0.1118,0.2071-0.108,0.2134-0.1059,0.2226-0.1021,0.2359-0.101,0.2451-0.1,0.2539-0.096,0.2656-0.092,0.2769-0.091,0.2846-0.086,0.147-0.042,0.1212-0.02,0.2905-0.046,0.291-0.043,0.2841-0.04,0.2807-0.038,0.2833-0.034,0.2822-0.032,0.2739-0.029,0.2754-0.025,0.2759-0.025,0.2755-0.021,0.2728-0.019,0.2715-0.017,0.2725-0.016,0.2705-0.013,0.2667-0.011,0.2675-0.01,0.271-0.01,0.27-0.01h0.2696,0.2675l0.2671-0.0004,0.2705,0.0004h0.2676,0.2685,0.271l0.2715,0.01,0.27,0.01,0.2715,0.01,0.2734,0.01,0.354,0.012,0.2393,0.036,0.4233,0.068,0.4175,0.071,0.4117,0.075,0.4096,0.08,0.4057,0.085,0.4014,0.091,0.3975,0.095,0.3945,0.1035,0.3921,0.1104,0.3907,0.1172,0.3847,0.1246,0.3843,0.1332,0.3818,0.1416,0.3794,0.1504,0.7808,0.3316,1.2202,0.2148,1.2065-0.041,1.2603-0.3564,1.2456-0.7915,1.0156-1.3121,0.4683-1.6719-0.1514-1.6274-0.6796-1.6079-1.1265-1.1093-0.6929-0.6139-0.6811-0.5526-0.6612-0.503-0.6337-0.4614-0.5978-0.4278-0.5561-0.3998-0.5097-0.3785-0.457-0.3603-0.4034-0.3447-0.3476-0.3316-0.2954-0.3218-0.2481-0.3159-0.208-0.3208-0.1787-0.3403-0.1265-0.3125-0.2051-0.8125-0.289-1.0835-0.3027-1.0835-0.3164-1.0835-0.3286-1.0825-0.3414-1.0796-0.073-0.2237,0.1017,0.024,0.7128,0.01,0.3448,0.0005h0.3379,0.333l0.3345-0.01,0.3335-0.01,0.3338-0.01,0.334-0.01,0.3355-0.01,0.3423-0.01,0.3506-0.01,0.3545-0.01,0.3618-0.01h0.375,0.3887,0.4658l0.6977-0.022,0.7598-0.09,0.7617-0.17,0.7495-0.2666,0.7198-0.3686,0.6533-0.4614,0.559-0.5171,0.4527-0.5337,0.3608-0.5156,0.2897-0.4864,0.2372-0.4477,0.2003-0.4073,0.1806-0.3773,0.1719-0.3565,0.1708-0.3379,0.1665-0.312,0.1489-0.249,0.094-0.1349,0.058-0.07,0.054-0.055,0.098-0.084,0.1865-0.1393,0.294-0.2016,1.6508-1.084,0.3765-1.7769,0.071-0.3827,0.026-0.1686,0.022,0.4224,0.021,0.4508,0.018,0.4447,0.015,0.4395,0.012,0.435,0.01,0.4278,0.01,0.4243,0.01,0.4204v0.4175,0.895l0.2793,1.0743,0.2983,0.7724,0.4288,0.7651,0.5761,0.7051,0.6909,0.5786,0.7197,0.4004,0.6465,0.2344,1.3043,0.3052,1.1137-0.3418,0.209-0.062,0.2055-0.06,0.2027-0.056,0.1992-0.052,0.1973-0.048,0.1948-0.044,0.1968-0.041,0.1939-0.037,0.2001-0.033,0.2041-0.029,0.2051-0.026,0.2094-0.021,0.2184-0.017,0.2221-0.012,0.2305-0.01h0.2398l0.2518,0.01,0.2603,0.011,0.2705,0.018,0.2847,0.025,0.2993,0.033,0.3125,0.041,0.3217,0.049,0.3394,0.06,0.358,0.07,0.372,0.08,0.3873,0.09,0.4032,0.1036,0.4244,0.1142,0.4404,0.128,0.7675,0.2339,0.84,0.105,0.89-0.023,1.0887-0.2695,1.1625-0.6978,0.905-1.1152,0.4588-1.2213,0.1212-1.0795-0.085-1.3951,0.4075,0.4664,0.6263,0.6489,0.6625,0.6167,0.695,0.584,0.7275,0.5493,0.7612,0.5142,0.7913,0.479,0.4525,0.2446,0.1725,0.1397,0.5412,0.3827,0.56,0.3442,0.575,0.3008,0.59,0.2603,0.6025,0.2187,0.6088,0.1772,0.6112,0.1349,0.615,0.098,0.6163,0.06,0.6125,0.025,0.6112-0.01,0.605-0.038,0.6-0.066,0.5975-0.092,0.99-0.1954,0.7175-0.3593,0.2525-0.1143,0.2763-0.1117,0.3-0.1104,0.3187-0.106,0.3388-0.101,0.3562-0.097,0.3675-0.09,0.3775-0.083,0.3913-0.078,0.3937-0.071,0.3988-0.063,0.4012-0.057,0.4-0.05,0.4013-0.042,0.35-0.033,0.3212-0.014,0.2325,0.01,0.1938,0.02,0.16,0.03,0.1425,0.04,0.1375,0.05,0.14,0.064,0.1475,0.082,0.165,0.109,0.19,0.1425,0.2087,0.1773,0.2313,0.2133,0.2525,0.2536,0.275,0.2923,0.295,0.3316,0.7537,0.8741,1.0763,0.5903,0.8125,0.2764,0.8025,0.1299h0.7387l0.6513-0.082,0.5537-0.1303,0.4588-0.1455,3.6375-1.3604-1.35-3.8735-0.125-0.4009-0.105-0.377-0.085-0.3609-0.069-0.3417-0.05-0.3199-0.035-0.2992-0.02-0.2823-0.01-0.2612,0.01-0.2427,0.016-0.2246,0.026-0.2105,0.035-0.1977,0.043-0.1831,0.051-0.1743,0.06-0.168,0.068-0.1606,0.076-0.1573,0.085-0.1532,0.098-0.1544,0.11-0.1547,0.1237-0.1558,0.1375-0.1572,0.1538-0.1597,0.1712-0.1602,0.19-0.163,0.2075-0.1641,0.2275-0.165,0.2463-0.1632,0.2687-0.164,0.2875-0.1641,1.9-0.9975,0.455-2.4825-0.01-1.1113-0.2725-1.1575-0.555-1.0637-0.735-0.825-0.7762-0.5725-0.7413-0.375-1.2875-0.4625-1.135,0.13-0.33,0.036-0.3287,0.035-0.33,0.034-0.33,0.032-0.3275,0.03-0.3263,0.029-0.3262,0.027-0.33,0.026-0.2,0.014,1.4662-1.0337,0.3725-1.9062,0.091-0.4326,0.094-0.4199,0.1-0.4063,0.1063-0.3938,0.1125-0.3812,0.1212-0.3662,0.1288-0.355,0.1412-0.3451,0.15-0.3362,0.1613-0.325,0.175-0.3188,0.1912-0.3125,0.2075-0.3087,0.2288-0.3063,1.4087-1.7212-0.4475-2.2175-0.1512-0.6075-0.2213-0.6737-0.325-0.7376-0.47-0.77-0.6462-0.7562-0.8238-0.6575-2.5062-1.3-1.9575,1.3562-0.24,0.1663-0.2363,0.16-0.2325,0.1525-0.23,0.1437zm-1.7925,15.511-0.2575-0.012-0.32-0.018-0.32-0.02-0.3212-0.024-0.3188-0.027-0.3187-0.03-1.2838-0.135-1.3412,0.6225-0.6563,0.4375-0.5787,0.5363-0.4713,0.5962-0.36,0.6188-0.255,0.6037-0.175,0.5725-0.8287,3.935-0.165-0.032-0.235-0.051-0.2263-0.058-0.2187-0.06-0.2113-0.065-0.2012-0.07-0.1963-0.075-0.1862-0.077-0.1763-0.08-0.1737-0.088-0.165-0.09-0.1538-0.091-0.1462-0.095-0.1425-0.1012-0.135-0.1038-0.1263-0.105-0.1225-0.1112-0.098-0.096-0.185-0.2062-0.1637-0.2113-0.1638-0.2412-0.1612-0.2763-0.155-0.305-0.1475-0.335-0.1388-0.3625-0.125-0.3887-0.1137-0.4113-0.096-0.4275-0.081-0.445-0.065-0.4612-0.046-0.4725-0.029-0.4788-0.01-0.4862,0.01-0.5463,0.01-0.2725,0.015-0.2212,0.024-0.2288,0.032-0.2375,0.043-0.2425,0.053-0.2462,0.061-0.2525,0.073-0.2563,0.081-0.2575,0.089-0.2587,0.097-0.2575,0.1075-0.2575,0.1163-0.2575,0.1237-0.255,0.1313-0.2513,0.1375-0.2475,0.1462-0.2425,0.1513-0.2375,0.1562-0.23,0.1613-0.2237,0.1675-0.2163,0.1712-0.2075,0.1738-0.1987,0.1762-0.1875,0.1763-0.1775,0.18-0.1675,0.1825-0.1575,0.1787-0.1438,0.1775-0.1325,0.054-0.036,0.2087-0.019,0.33-0.021,0.3525-0.011,0.3738,0,0.3887,0.01,0.4,0.015,0.4038,0.025,0.4112,0.037,0.4125,0.048,0.4075,0.06,0.4013,0.069,0.3925,0.081,0.38,0.091,0.4012,0.1125,0.5175,0.1512,0.5,0.1463,0.425,0.1287,0.3338,0.1125,0.1425,0.057,0,0.1838-0.034,0.4625-0.3988,2.7812,1.8875,1.5675,0.4725,0.3263zm-48.776-3.5575,0.074,0.021,0.4585,0.1313,0.4555,0.1275,0.4546,0.125,0.4565,0.125,0.2223,0.059,0.022,0.033,0.089,0.145,0.1032,0.1813,0.1097,0.21,0.1163,0.2362,0.1196,0.2613,0.126,0.2875,0.127,0.31,0.1289,0.3262,0.1293,0.3475,0.1314,0.3675,0.1328,0.385,0.1333,0.4,0.1328,0.415,0.1337,0.4288,0.1339,0.4412,0.016,0.055-0.3628-0.4175-0.7153-0.5787-0.6934-0.375-0.6856-0.2325-0.6371-0.1138-0.3848-0.019,0.037-0.1925,0.064-0.9713-0.092-1.0137-0.2861-1.0213-0.252-0.4837"/>
   <path id="path22718" stroke-linejoin="miter" style="stroke-dasharray:none;" d="m3064.9-2213.5,0-0.247,0.01-0.2344,0.017-0.223,0.024-0.2154,0.03-0.2014,0.037-0.1926,0.042-0.1799,0.047-0.1672,0,0,0.132-0.2673,0.2207-0.4245,0.2121-0.3851,0.2047-0.3471,0.1961-0.3104,0.1861-0.2749,0.1776-0.2395,0.1665-0.2065,0.1566-0.1761,0.148-0.1495,0.1393-0.1267,0.1319-0.1064,0.1283-0.091,0.1307-0.082,0.1356-0.072,0.1443-0.067,0.1615-0.063,0.1825-0.06,0.2047-0.056,0.2319-0.051,0.2614-0.044,0.2959-0.038,0.3268-0.03,0.3588-0.021,0.3909-0.011,0.4267,0,0.4611,0.01,0.4921,0.016,0.5253,0.025,0.561,0.035,0.069,0.01,0.025,0.1799,0.018,0.261,0.01,0.3078-0.01,0.3522-0.023,0.389-0.039,0.4257-0.222,1.8762,1.3614,1.9954,1.3699,0.8045,1.1937,0.2673,1.0444-0.016,0.9828-0.2141,0.9951-0.4447,1.0062-0.7816,1.1098-1.609,0.028-1.6242,0.025-0.3914,0.041-0.3586,0.054-0.3256,0.065-0.2901,0.075-0.2572,0.084-0.2293,0.094-0.2077,0.099-0.1837,0.1061-0.1673,0.1184-0.1583,0.1319-0.1495,0.1492-0.147,0.1727-0.1457,0.2022-0.1457,2.0962-1.2998-0.069-2.6326-0.078-0.669-0.1344-0.6448-0.1874-0.6145-0.2343-0.5764-0.2725-0.5359-0.3021-0.4903-0.3317-0.4535-0.3539-0.4118-0.3663-0.3674-0.3822-0.3306-0.3971-0.2978-0.4106-0.2622-0.4254-0.2306-0.4477-0.1964-2.8484-0.9755-1.6881,2.5516-0.1159,0.1558-0.09,0.1064-0.01,0.01-0.03,0-0.127-0.022-0.275-0.1114-0.5623-0.223-0.5697-0.2179-0.582-0.2129-0.5906-0.2039-0.5968-0.1951-0.608-0.1863-0.6177-0.1748-0.6289-0.1584-0.6363-0.1457-0.6462-0.1266-0.656-0.1103-0.6646-0.089-0.6733-0.067-0.6831-0.043-0.6942-0.018-0.7017,0.011-0.7065,0.041-0.7128,0.072-0.7189,0.1039-0.7238,0.1407-0.7251,0.1735-0.725,0.2116-0.7276,0.2483-0.7262,0.2889-0.7214,0.3268-0.7214,0.3662-0.7152,0.4054-0.7102,0.4484-0.7041,0.4853-0.6967,0.527-0.7202,0.5916-0.7349,0.6804-0.7004,0.7652-0.6363,0.8121-0.5697,0.8488-0.5092,0.8843-0.4476,0.9121-0.3909,0.9376-0.3354,0.9552-0.2837,0.973-0.2305,0.9882-0.1825,0.9983-0.1332,1.0072-0.086,1.0122-0.039,1.0186,0,1.0199,0.052,1.0147,0.094,1.0148,0.1406,1.0085,0.185,1.0008,0.2293,0.9895,0.275,0.9768,0.3231,0.9608,0.3699,0.9434,0.4193,0.9194,0.4661,0.896,0.5204,0.8682,0.5733,0.8374,0.6289,0.7978,0.6844,0.7559,0.7423,0.708,0.8028,0.6543,0.9692,0.665,0.8311,0.3926,0.5919,0.2715,0.5943,0.2642,0.5932,0.2544,0.5943,0.2465,0.5956,0.2359,0.598,0.2255,0.5969,0.213,0.6005,0.2026,0.6042,0.1885,0.6055,0.1748,0.6079,0.1586,0.6104,0.1446,0.6165,0.1259,0.6178,0.1079,0.6153,0.088,0.6609,0.074,0.6585,0.054,0.6573,0.036,0.6584,0.015,0.656,0,0.6548-0.023,0.656-0.042,0.6548-0.062,0.6535-0.08,0.6524-0.098,0.6523-0.1163,0.651-0.1343,0.6511-0.1517,0.6523-0.169,0.6523-0.186,0.6511-0.2022,0.6523-0.2178,0.6523-0.2344,0.6548-0.2494,0.6597-0.2647,0.6585-0.2807,0.6634-0.295,0.6646-0.3091,0.6708-0.3242,0.6745-0.3389,0.6795-0.3529,0.6844-0.3658,0.6917-0.3813,0.6967-0.3937,0.7054-0.4077,0.7115-0.4218,1.6757-1.0118,0.7288-1.6542,0.312-1.2759-0.4094-2.3759-2.1296-1.5161-1.5142-0.065-0.6227,0.1089-0.206,0.051-0.3724,0.077-0.3748,0.147-0.1172,0.044-0.1171,0.046-0.1172,0.046-0.1171,0.046-0.1566,0.06-0.624,0.1596-0.815,0.2027-0.8225,0.1951-0.8274,0.1862-0.8311,0.1761-0.8311,0.1603-0.8287,0.1456-0.8225,0.1259-0.815,0.1069-0.8003,0.084-0.7867,0.059-0.7695,0.034-0.7448,0.01-0.7201-0.022-0.693-0.051-0.6597-0.082-0.6277-0.1109-0.5881-0.1391-0.5488-0.1685-0.5117-0.1949-0.4735-0.2218-0.4365-0.2495-0.4033-0.2775-0.3761-0.3104-0.3526-0.3458-0.3305-0.3902-0.3144-0.4447-0.296-0.5055-0.2774-0.579-0.254-0.6588-0.2269-0.7487-0.2035-0.8792-0.047-0.2534-0.047-0.2863-0.038-0.28-0.031-0.2749-0.022-0.2699-0.015-0.261-0.01-0.2521zm-34.05,21.108,0.8891,0.6264,0.984,0.3916,2.1715,0.3408,1.5488-1.2533,0.3169-0.2472,0.3144-0.2353,0.3132-0.2232,0.3132-0.2138,0.3132-0.2026,0.3108-0.1914,0.3095-0.1807,0.3082-0.1685,0.3096-0.1596,0.307-0.147,0.3058-0.1358,0.3058-0.1259,0.3071-0.1162,0.3045-0.104,0.3034-0.093,0.3033-0.083,0.3034-0.072,0.3082-0.062,0.3071-0.052,0.307-0.04,0.312-0.03,0.3132-0.019,0.3169-0.01,0.3169,0,0.3243,0.014,0.3329,0.026,0.333,0.037,0.3379,0.05,0.3465,0.063,0.3539,0.077,1.4587,0.3642,1.7411-0.6548,1.0765-0.8052,0.7843-1.1645,0.3465-1.2017,0.037-0.9907-0.093-0.7539-0.1356-0.5767-0.5574-1.8647-1.6548-0.8672-0.1714-0.106-0.1295-0.095-0.1-0.084-0.072-0.072-0.053-0.063-0.044-0.061-0.043-0.07-0.041-0.081-0.042-0.098-0.043-0.1206-0.043-0.1489-0.044-0.1806-0.041-0.2076-0.039-0.2354-0.059-0.4263-0.1159-0.5508-0.07-0.3839-0.062-0.3915-0.054-0.3978-0.047-0.4028-0.037-0.4067-0.032-0.4143-0.023-0.4193-0.017-0.4257-0.011-0.4282,0-0.4333,0-0.4396,0.01-0.4447,0.012-0.4498,0.017-0.451,0.021-0.4586,0.026-0.4624,0.028-0.465,0.032-0.4674,0.036-0.4751,0.036-0.4764,0.04-0.4801,0.041-0.4827,0.041-0.4878,0.041-0.489,0.043-0.4916,0.041-0.4953,0.039-0.4979,0.038-0.5017,0.036-0.503,0.033-0.5055,0.041-0.7031-0.021-0.4041,0-0.014,0-0.01,0-0.01,0-0.013,0.011-0.028,0.023-0.046,0.038-0.066,0.059-0.089,0.081-0.1052,0.106-0.1242,0.1308-0.138,0.1541-0.1521,0.1788-0.1634,0.2034-0.1723,2.5094-2.0346-1.3626-2.8164-0.1146-0.2495-0.2282-0.4473-0.3983-0.6144-0.6276-0.6791-0.8385-0.5891-0.9483-0.3902-1.5512-0.3015-1.2072,0.3927-0.3194,0.098-0.3181,0.089-0.3194,0.082-0.3181,0.073-0.3169,0.067-0.3157,0.061-0.3194,0.053-0.3206,0.047-0.3169,0.041-0.3169,0.034-0.3169,0.028-0.3206,0.02-0.3219,0.016-0.3181,0.01-0.3218,0-0.3256,0-0.323-0.01-0.3231-0.013-0.3268-0.02-0.328-0.024-0.3255-0.03-0.328-0.035-0.3317-0.041-0.3342-0.046-0.3329-0.051-0.3342-0.056-0.3354-0.061-0.3367-0.065-0.3366-0.07-0.3403-0.073-1.3022-0.3015-1.3749,0.4574-0.6585,0.2989-0.7263,0.4701-0.7299,0.7031-0.6141,0.9489-0.3712,1.0883-0.1122,1.0806,0.2343,2.7593,2.1098,1.0617,0.291,0.1495,0.2676,0.1444,0.2503,0.1394,0.2294,0.1381,0.2071,0.133,0.1899,0.1318,0.1677,0.1267,0.148,0.1254,0.1332,0.1229,0.1196,0.1254,0.1073,0.1254,0.097,0.1292,0.041,0.5651,0.063,0.7487,0.072,0.7639,0.075,0.7805,0.079,0.7956,0.08,0.8083,0.076,0.8158,0.074,0.8235,0.067,0.8273,0.059,0.8311,0.048,0.826,0.036,0.821,0.021,0.812,0,0.7982-0.014,0.7817-0.032,0.7614-0.055,0.7348-0.075,0.7075-0.097,0.6724-0.1209,0.6342-0.1418,0.5943-0.164,0.5483-0.1813,0.499-0.1985,0.4493-0.2145,0.4013-0.2282,0.3545-0.2404,0.31-0.259,0.2744-0.2799,0.2447-0.3095,0.2198-2.6105,1.4735,0.3724,3.0493,0.1801,0.7828,0.307,0.8228,0.4809,0.8319,0.693,0.7843zm-10.638-35.393-0.2232,0.1318-0.217,0.1178-0.2109,0.1039-0.2047,0.09-0.1887,0.072-0.18,0.057-0.1665,0.042-0.1553,0.027-0.1418,0.014-0.1332,0-0.064-0.01-0.1825-0.035-0.3268-0.079-0.3391-0.094-0.3514-0.1089-0.365-0.1229-0.3811-0.1356-0.3958-0.1469-0.418-0.1571-0.4378-0.1647-0.455-0.1685-0.4784-0.1698-0.5044-0.1698-0.529-0.1634-0.5524-0.1533-0.5783-0.1393-0.8188-0.1635-0.8508-0.023-0.5648-0.011-0.566-0.01-0.566,0-0.5697,0.01-0.5709,0.011-0.5697,0.02-0.5721,0.03-0.5759,0.041-0.5746,0.054-0.5759,0.066-0.5783,0.082-0.5808,0.099-0.5783,0.1166-0.5808,0.1355-0.5795,0.1571-0.5808,0.1799-0.5771,0.2027-0.5747,0.2281-0.5709,0.2559-0.566,0.2825-0.5586,0.3116-0.5512,0.3396-0.5413,0.3699-0.5302,0.4003-0.5179,0.4295-0.5056,0.4599-0.4895,0.489-0.4748,0.5182-0.4587,0.5473-0.4427,0.5752-0.5327,0.7563-0.3095,0.6056-0.1997,0.4181-0.1936,0.4231-0.1813,0.4308-0.1726,0.4345-0.1603,0.4371-0.1529,0.4447-0.1394,0.4472-0.1319,0.4548-0.1209,0.4599-0.1109,0.4624-0.099,0.4688-0.089,0.47-0.078,0.4751-0.069,0.4827-0.055,0.4814-0.046,0.4852-0.036,0.4928-0.025,0.4954-0.014,0.4966,0,0.5017,0.01,0.503,0.019,0.5092,0.028,0.5093,0.038,0.5144,0.051,0.5194,0.06,0.5207,0.07,0.522,0.08,0.5283,0.091,0.5308,0.1024,0.5321,0.159,0.7678,0.3823,1.0473,0.1011,0.247-0.4599-0.8066-0.4883-0.8931-0.4452-0.8514-0.4081-0.8146-0.37-0.7792-0.3354-0.7449-0.3021-0.712-0.2737-0.6841-0.2442-0.655-0.2207-0.6309-0.1961-0.6069-0.1751-0.5904-0.159-0.5726-0.1406-0.5574-0.1258-0.5461-0.1147-0.5409-0.1035-0.5359-0.095-0.5334-0.09-0.5334-0.084-0.5397-0.081-0.5447-0.079-0.5537-0.081-0.5637-0.084-0.579-0.089-0.5904-0.095-0.603-0.1056-0.6221-0.1918-1.054-0.6114-1.3569-0.6411-1.0236-0.8217-0.9008-0.981-0.6981-1.0093-0.4231-0.872-0.1913-0.6402-0.062-0.6733-0.037-0.8125,0.066-0.5713,0.043-0.568,0.042-0.5668,0.037-0.5659,0.034-0.5625,0.032-0.5601,0.027-0.5591,0.021-0.5571,0.018-0.5532,0.013-0.5518,0.01-0.5503,0-0.5469-0.01-0.5444-0.01-0.5439-0.018-0.5434-0.024-0.5396-0.03-0.5362-0.038-0.5357-0.047-0.5341-0.053-0.5322-0.061-0.5288-0.071-0.5274-0.08-0.5273-0.087-0.5259-0.098-0.5229-0.1077-0.523-0.1165-0.521-0.128-0.5205-0.1381-0.518-0.1482-0.5176-0.1596-2.3394-0.7754-1.8481,1.4886-0.4702,0.4371-0.4873,0.5587-0.4776,0.726-0.3945,0.9286-0.208,1.0933,0.053,1.1478,0.5406,1.9511,1.3848,0.997,0.395,0.2699,0.4013,0.2635,0.4034,0.2496,0.4086,0.2445,0.4121,0.2356,0.4166,0.2268,0.42,0.2204,0.4238,0.2129,0.4258,0.2052,0.2519,0.1178-0.5805,0.2091-0.7813,0.4776-0.6461,0.5815-0.5234,0.6423-0.4184,0.6829-0.3336,0.7132-0.2651,0.7475-0.1821,0.6829-0.098,0.3927-0.084,0.2825-0.1,0.2889-0.1146,0.2977-0.1295,0.3041-0.1436,0.3078-0.1562,0.3142-0.1719,0.3243-0.1851,0.332-0.1943,0.3357-0.2061,0.3446-0.2162,0.3522-0.2251,0.361-0.23,0.3662-0.2368,0.3737-0.2432,0.3877-0.2456,0.3978-0.2446,0.4054-0.2451,0.4193-0.2432,0.4321-0.2397,0.4497-0.2324,0.4631-0.2232,0.4804-0.209,0.4927-0.1323-0.3121-0.4288-0.9897-0.4311-0.9769-0.433-0.9628-0.4342-0.9464-0.4355-0.9324-0.4351-0.9147-0.435-0.8995-0.4326-0.878-0.4307-0.8615-0.4283-0.8412-0.4257-0.8197-0.4204-0.7981-0.4161-0.7754-0.4111-0.7538-0.144-0.2572-0.034-0.1659-0.055-0.313-0.048-0.323-0.043-0.337-0.038-0.3497-0.033-0.3623-0.028-0.3725-0.024-0.3851-0.023-0.4029-0.021-0.4117-0.021-0.4219-0.021-0.4346-0.023-0.4484-0.025-0.4587-0.017-0.2571,0.027-0.6563-0.052-1.0452-0.2704-1.2707-0.7935-1.4886-1.5039-1.1731-1.687-0.3864-1.3999,0.1228-1.0626,0.299-0.2055,0.067-0.059,0.015-0.066,0.014-0.075,0.013-0.086,0.01-0.093,0.01-0.105,0.01-0.1196,0-0.1294-0.01-0.1357-0.01-0.148-0.014-0.1607-0.018-0.1699-0.024-0.1802-0.028-0.1884-0.03-0.2177-0.039-0.6983-0.1204-0.6817-0.1052-0.646-0.089-0.6177-0.076-0.5913-0.062-0.5668-0.051-0.5464-0.044-0.5284-0.037-0.5142-0.033-0.5033-0.03-0.4961-0.03-0.4971-0.033-0.5029-0.037-0.5156-0.042-0.5332-0.049-1.1744-0.1242-1.499,0.3623-1.164,0.8375-0.7384,0.8602-0.5414,0.9312-0.3912,1.1161-0.1475,1.4645,0.4829,1.8636,1.1792,1.2682,0.6665,0.4118,0.2486,0.1558,0.2461,0.1545,0.2457,0.1571,0.245,0.1597,0.2432,0.1583,0.2412,0.1609,0.2413,0.1609,0.2397,0.1622,0.2367,0.1634,0.2374,0.166,0.2373,0.1672,0.2359,0.1672,0.2329,0.1685,0.1348,0.099,0.058,0.077,0.061,0.09,0.052,0.087,0.045,0.085,0.038,0.08,0.033,0.081,0.03,0.087,0.025,0.089,0.01,0.027-0.061,0.095-0.2305,0.3509-0.228,0.3459-0.2242,0.337-0.2226,0.3294-0.2226,0.3231-0.2198,0.3129-0.2187,0.3028-0.2183,0.2939-0.2183,0.2825-0.2157,0.2724-0.2153,0.2597-0.2145,0.2458-0.2148,0.2356-0.1113,0.114-0.1465,0.147-0.2124,0.2179-0.2915,0.3256-0.3443,0.4662-0.3457,0.6221-0.2694,0.755-0.019,0.1077-0.047-0.01-1.186,0.033-1.3252,0.4726-1.0083,0.8564-0.057-0.1001-0.4454-0.7829-0.4555-0.8032-0.4634-0.8197-0.4712-0.8324-0.4776-0.8425-0.4814-0.845-0.4858-0.8488-0.4888-0.845-0.4898-0.84-0.4902-0.8323-0.4902-0.8184-0.4883-0.802-0.4864-0.7829-0.4829-0.7614-0.4804-0.7374-0.4771-0.7094-0.4741-0.6791-0.4726-0.6487-0.4732-0.6157-0.4761-0.5815-0.4843-0.5498-0.5059-0.5194-0.5463-0.4941-0.6134-0.4675-0.7377-0.4371-0.9341-0.3611-0.8092-0.1127-0.5888-0.03c-4.0952,0.3585-8.1768,0.2648-12.276-0.1128l-0.8471,0.023-1.1358,0.3003-0.9702,0.5511-0.7105,0.565-0.5864,0.5803-0.5132,0.6144-0.4731,0.6968-0.4766,0.9704-0.8765,4.4798,4.2271,0.6233,0.4116,0.081,0.3565,0.089,0.2944,0.092,0.232,0.094,0.1674,0.085,0.1074,0.068,0.057,0.046,0.023,0.024,0.01,0.01,0.01,0.018,0.02,0.049,0.029,0.1115,0.027,0.1938,0.012,0.2889-0.01,0.1279-0.074,0.2724-0.1743,0.5992-0.1728,0.5625-0.1714,0.5258-0.169,0.489-0.166,0.4536-0.1651,0.4231-0.1635,0.3991-0.1597,0.3687-0.1572,0.3408-0.1557,0.3217-0.1568,0.3041-0.1548,0.2876-0.1528,0.2698-0.1558,0.2623-1.0132,1.6394,0.5449,2.0308-0.07,0.032-1.2241,1.315-0.4507,1.4037-0.2016,0.6187-0.2027,0.6172-0.2031,0.6137-0.2041,0.6119-0.2065,0.6094-0.2051,0.6063-0.208,0.606-0.207,0.603-0.2086,0.5986-0.2095,0.5978-0.2108,0.5972-0.2105,0.5936-0.2115,0.5914-0.2123,0.5898-0.214,0.5884-0.2148,0.5879-0.2143,0.5844-0.2153,0.583-0.2159,0.5807-0.2173,0.581-0.2172,0.5772-0.2183,0.5775-0.2197,0.5757-0.2198,0.5762-0.2202,0.5728-0.2206,0.5712-0.2217,0.5714-0.2212,0.5697-0.2232,0.5685-0.2226,0.5683-0.1084,0.2744-0.2227,0.3653-0.3862,0.6357-0.3809,0.621-0.3799,0.6041-0.3803,0.5839-0.3847,0.5621-0.3902,0.5386-0.3999,0.5127-0.4102,0.4857-0.4214,0.4556-0.438,0.4278-0.458,0.3994-0.4819,0.3731-0.5093,0.3442-0.5445,0.3189-1.745,0.8671-0.98,1.9238-0.2539,1.4229,0.1137,1.3413,0.4278,1.2451,0.769,1.1558,1.2187,0.9838,1.6997,0.5215,1.9927-0.2929,1.0118-0.7652,0.2646-0.1899,0.2696-0.1841,0.2728-0.1762,0.2793-0.1685,0.2867-0.1651,0.294-0.1567,0.2988-0.1499,0.3067-0.143,0.3154-0.1383,0.3237-0.1313,0.3325-0.1236,0.3394-0.1166,0.3506-0.1099,0.3613-0.1025,0.3682-0.095,0.3794-0.086,0.3935-0.08,0.4053-0.071,0.4136-0.063,0.4272-0.054,0.4404-0.045,0.4512-0.035,0.4648-0.026,0.4781-0.016,0.4907-0.01h0.5068l0.5186,0.016,0.5337,0.027,0.5488,0.038,0.5615,0.05,1.2905,0.1386,1.9155-0.5668,1.3706-1.4673,0.5835-1.4737,0.1495-1.3334-0.1411-1.294-0.4898-1.3559-1.0561-1.3789-1.5498-0.8291-0.2017-0.03v-0.032l-0.02-0.4403-0.01-0.4498,0.01-0.4604,0.024-0.4717,0.038-0.4805,0.055-0.4907,0.069-0.5044,0.086-0.5141,0.101-0.5235,0.1168-0.5347,0.1333-0.5468,0.1493-0.5561,0.1651-0.5654,0.1822-0.5762,0.1981-0.587,0.2145-0.5967,0.2309-0.6073,0.2465-0.6144,0.2638-0.6254,0.2798-0.6368,0.2943-0.6431,0.3111-0.6523,0.3277-0.6631,0.3423-0.6703,0.3573-0.6793,0.3736-0.6874,0.3891-0.6968,0.4033-0.7051,0.4951-0.8433,0.587-1.186-0.1001-1.8887-0.2612-0.5854,0.164-0.075,1.0459-0.8999,0.4307-0.6768,0.1264-0.1733,0.213-0.3129,0.2036-0.318,0.1928-0.3206,0.1851-0.3268v-0.01l0.3584,0.318,0.5668,0.5929,0.5948,0.7134,0.6099,0.8232,0.6176,0.9262,0.6182,1.0167,0.6163,1.102,0.6084,1.1739,0.5975,1.2377,0.5845,1.292,0.5703,1.3394,0.5538,1.376,0.5352,1.4062,0.5155,1.4268,0.4956,1.439,0.4732,1.4428,0.4507,1.44,0.4262,1.4277,0.4009,1.4081,0.3755,1.3794,0.3487,1.3438,0.3203,1.2994,0.2929,1.247,0.2622,1.1845,0.2324,1.1158,0.2008,1.0371,0.1679,0.9467,0.1343,0.8472,0.1006,0.73,0.074,0.6768,0.096,0.8379,0.3666,1.1289,0.6113,1.0463,0.8932,0.9224,1.2309,0.7012,1.5449,0.2729,1.6187-0.3554,1.038-0.7173,0.6655-0.6109,0.4825-0.4438,0.4834-0.4434,0.4819-0.4438,0.4829-0.4443,0.483-0.4434,0.4834-0.4438,0.4819-0.4443,0.4833-0.4434,0.4825-0.4438,0.4834-0.444,0.4824-0.4433,0.4834-0.4439,0.483-0.4448,0.4834-0.4448,0.3827-0.3526,0.44-0.3461,0.6231-0.6367,0.519-0.6987,0.3959-0.7154,0.2803-0.6845,0.1861-0.6192,0.1176-0.5225,0.2593-1.3994-0.5082-1.3999-0.1754-0.4672-0.1796-0.4674-0.1851-0.4667-0.1894-0.4648-0.1944-0.4664-0.1997-0.4682-0.2036-0.4659-0.2071-0.4643-0.2123-0.4663-0.2169-0.4664-0.2216-0.4667-0.2252-0.4664-0.2294-0.4663-0.2335-0.4653-0.2153-0.4248-0.2148-0.4419-0.1626-0.3764-0.1328-0.3516-0.1064-0.3281-0.081-0.3042-0.062-0.2901-0.045-0.2802-0.03-0.2676-0.014-0.2588v-0.2618l0.011-0.2681,0.023-0.2715,0.035-0.2787,0.048-0.2949,0.061-0.3115,0.072-0.3237,0.085-0.335,0.097-0.3584,0.1094-0.3794,0.1168-0.3946,0.1254-0.4126,0.1319-0.4345,0.1366-0.4551,0.1373-0.4746,0.1387-0.4951,0.1361-0.5201,0.1305-0.5395,0.1226-0.5615,0.1122-0.586,0.1-0.6078,0.083-0.6299,0.019-0.1949,0.816,0.027,0.9501-0.1998,0.3433-0.1528,0.1674,0.2686,0.2686,0.439,0.2671,0.4453,0.2656,0.4522,0.2637,0.4584,0.2607,0.4625,0.2584,0.4701,0.2568,0.4746,0.2544,0.4814,0.2524,0.4879,0.25,0.4931,0.2476,0.5,0.2456,0.5049,0.2417,0.5113,0.2417,0.5185,0.2382,0.5244,0.2369,0.5322,0.2339,0.5376,0.2313,0.5425,0.2277,0.5493,0.2275,0.5577,0.2237,0.5629,0.2211,0.5689,0.2187,0.5776,0.2173,0.583,0.2139,0.5903,0.2114,0.5967,0.209,0.6036,0.2065,0.6103,0.2027,0.6172,0.2012,0.624,0.1455,0.4638,0.071,0.3429,0.094,0.4901,0.082,0.4664,0.068,0.4414,0.053,0.4111,0.036,0.3765,0.019,0.3398v0.2964l-0.01,0.2486-0.019,0.1918-0.023,0.1368-0.016,0.06-0.049,0.046-0.2368,0.2226-0.2334,0.2168-0.229,0.2106-0.2275,0.2055-0.2252,0.1987-0.2153,0.1886-0.2163,0.1825-0.2144,0.1778-0.2056,0.165-0.1996,0.1547-0.1953,0.1461-0.1896,0.1357-0.1811,0.124-0.1694,0.1104-1.5122,0.9185-0.502,2.2519-0.074,1.0742,0.1885,1.2774,0.6436,1.3515,1.1025,1.0679,1.2338,0.5683,1.1162,0.1909,1.8858-0.032,1.1152-0.854,0.1632-0.1177,0.1714-0.1158,0.1762-0.1123,0.1871-0.1113,0.1991-0.1118,0.207-0.1079,0.2135-0.1059,0.2226-0.1022,0.2359-0.1011,0.2451-0.1,0.2539-0.096,0.2656-0.092,0.2768-0.091,0.2847-0.086,0.147-0.042,0.1211-0.02,0.2905-0.046,0.2911-0.043,0.2841-0.04,0.2807-0.038,0.2833-0.034,0.2822-0.032,0.2739-0.029,0.2755-0.025,0.2758-0.025,0.2754-0.021,0.273-0.019,0.2714-0.017,0.2725-0.016,0.2705-0.013,0.2666-0.011,0.2676-0.01,0.2709-0.01,0.2701-0.01h0.2695,0.2676l0.2671-0.0004,0.2706,0.0004h0.2675,0.2685,0.271l0.2715,0.01,0.2701,0.01,0.2714,0.01,0.2735,0.01,0.354,0.012,0.2392,0.036,0.4234,0.068,0.4175,0.071,0.4116,0.075,0.4096,0.08,0.4059,0.085,0.4012,0.091,0.3976,0.095,0.3944,0.1035,0.3921,0.1104,0.3907,0.1172,0.3847,0.1245,0.3843,0.1333,0.3818,0.1415,0.3795,0.1504,0.7806,0.3315,1.2203,0.2149,1.2066-0.041,1.2602-0.3566,1.2456-0.7915,1.0157-1.312,0.4682-1.6718-0.1513-1.6275-0.6797-1.6079-1.1265-1.1093-0.6929-0.6138-0.6812-0.5528-0.6611-0.5029-0.6338-0.4614-0.5977-0.4278-0.5561-0.3999-0.5097-0.3783-0.457-0.3604-0.4034-0.3448-0.3476-0.3315-0.2954-0.3218-0.2481-0.3158-0.2081-0.3208-0.1786-0.3404-0.1264-0.3125-0.2052-0.8125-0.2891-1.0835-0.3027-1.0835-0.3164-1.0835-0.3286-1.0825-0.3413-1.0796-0.073-0.2236,0.1016,0.024,0.7129,0.01,0.3447,0.0005h0.3379,0.3331l0.3344-0.01,0.3335-0.01,0.334-0.01,0.334-0.01,0.3354-0.01,0.3423-0.01,0.3506-0.01,0.3545-0.01,0.3618-0.01h0.375,0.3887,0.4658l0.6977-0.022,0.7598-0.09,0.7617-0.1699,0.7495-0.2666,0.7198-0.3687,0.6533-0.4614,0.5591-0.517,0.4526-0.5338,0.3608-0.5156,0.2896-0.4864,0.2373-0.4477,0.2002-0.4072,0.1806-0.3775,0.1719-0.3564,0.1709-0.3379,0.1666-0.312,0.1488-0.249,0.094-0.1348,0.058-0.07,0.054-0.055,0.098-0.084,0.1865-0.1391,0.294-0.2017,1.6509-1.0839,0.3764-1.7769,0.071-0.3828,0.026-0.1685,0.022,0.4224,0.02,0.4506,0.018,0.4449,0.015,0.4394,0.012,0.435,0.01,0.4279,0.01,0.4243,0.01,0.4203v0.4176,0.8949l0.2793,1.0742,0.2984,0.7726,0.4286,0.7651,0.5762,0.705,0.6909,0.5786,0.7198,0.4005,0.6464,0.2343,1.3042,0.3052,1.1138-0.3418,0.209-0.062,0.2055-0.059,0.2028-0.056,0.1991-0.052,0.1973-0.048,0.1948-0.044,0.1968-0.041,0.1939-0.037,0.2001-0.033,0.2041-0.029,0.205-0.026,0.2095-0.02,0.2183-0.017,0.2222-0.012,0.2305-0.01h0.2397l0.2519,0.01,0.2603,0.011,0.2706,0.018,0.2846,0.025,0.2994,0.033,0.3124,0.04,0.3217,0.049,0.3395,0.06,0.3579,0.07,0.3719,0.08,0.3872,0.09,0.4032,0.1036,0.4242,0.1142,0.4414,0.128,0.767,0.2339,0.8397,0.105,0.8903-0.023,1.0889-0.2695,1.1628-0.6979,0.9051-1.1151,0.4574-1.2213,0.1221-1.0795-0.085-1.395,0.407,0.4662,0.6264,0.6491,0.6634,0.6166,0.6955,0.584,0.7275,0.5493,0.7608,0.5141,0.7904,0.4791,0.4526,0.2446,0.1726,0.1396,0.5413,0.3829,0.5599,0.3442,0.5758,0.3007,0.5894,0.2603,0.603,0.2188,0.6079,0.1772,0.6117,0.1348,0.614,0.098,0.6166,0.06,0.6128,0.025,0.6104-0.01,0.6055-0.038,0.6005-0.066,0.598-0.092,0.989-0.1953,0.7177-0.3594,0.2527-0.1143,0.2763-0.1117,0.2996-0.1103,0.3194-0.1061,0.3378-0.1011,0.3564-0.097,0.3687-0.09,0.3773-0.083,0.3909-0.078,0.3934-0.071,0.3983-0.063,0.402-0.057,0.4007-0.05,0.4008-0.042,0.3502-0.033,0.3206-0.014,0.233,0.01,0.1924,0.02,0.1615,0.03,0.1431,0.04,0.1356,0.05,0.1406,0.064,0.148,0.082,0.1652,0.109,0.1887,0.1425,0.2096,0.1773,0.2306,0.2134,0.2528,0.2534,0.2749,0.2925,0.296,0.3316,0.7534,0.8739,1.0753,0.5904,0.8126,0.2764,0.8027,0.1299h0.7399l0.6511-0.082,0.5536-0.1305,0.4587-0.1454,3.6364-1.3604-1.349-3.8736-0.1257-0.4008-0.1049-0.3769-0.085-0.3608-0.068-0.3418-0.051-0.3199-0.034-0.2993-0.02-0.2822-0.01-0.2613v-0.2427l0.016-0.2245,0.026-0.2106,0.036-0.1976,0.043-0.1832,0.051-0.1743,0.06-0.168,0.067-0.1607,0.078-0.1572,0.085-0.1533,0.098-0.1543,0.1097-0.1547,0.1221-0.1558,0.1393-0.1572,0.1542-0.1596,0.1701-0.1602,0.1899-0.1632,0.2084-0.164,0.2269-0.165,0.2466-0.1631,0.2676-0.1641,0.2886-0.1641,1.9002-0.997,0.4537-2.4835v-1.1098l-0.2725-1.1592-0.5537-1.063-0.7361-0.8247-0.7756-0.5727-0.7411-0.375-1.2874-0.4624-1.1357,0.1292-0.3292,0.037-0.3293,0.034-0.3304,0.034-0.3293,0.033-0.328,0.029-0.3267,0.03-0.3256,0.027-0.3304,0.025-0.1998,0.015,1.4661-1.0338,0.3724-1.9067,0.091-0.432,0.095-0.4193,0.1-0.408,0.1061-0.394,0.1122-0.38,0.1208-0.3662,0.1295-0.3547,0.1406-0.3459,0.1504-0.3357,0.1615-0.3256,0.1751-0.318,0.1912-0.3129,0.2071-0.3091,0.2282-0.3066,1.4094-1.7205-0.4476-2.2183-0.1517-0.6069-0.2207-0.6739-0.3256-0.7374-0.4698-0.7703-0.6461-0.755-0.8237-0.6588-2.5057-1.2999-1.9581,1.3569-0.2405,0.166-0.2367,0.1596-0.2319,0.1533-0.2293,0.1431zm-1.793,15.511-0.2577-0.011-0.3193-0.018-0.3206-0.02-0.3207-0.024-0.3181-0.027-0.3194-0.03-1.2836-0.1355-1.3429,0.6233-0.6547,0.437-0.5784,0.5359-0.4722,0.5968-0.3601,0.6195-0.2553,0.603-0.1738,0.5727-0.8299,3.9351-0.1652-0.032-0.2343-0.052-0.2269-0.057-0.217-0.061-0.2121-0.065-0.201-0.07-0.1973-0.074-0.185-0.078-0.1776-0.08-0.1738-0.087-0.164-0.09-0.1542-0.091-0.1455-0.095-0.143-0.1006-0.1356-0.1035-0.1258-0.106-0.1221-0.1113-0.099-0.096-0.1838-0.2052-0.164-0.2116-0.164-0.2419-0.1603-0.275-0.1554-0.3065-0.1479-0.3345-0.1381-0.3623-0.1258-0.389-0.1135-0.4105-0.096-0.4282-0.081-0.4447-0.064-0.4611-0.047-0.4726-0.03-0.4788-0.01-0.4853,0.01-0.5473,0.01-0.2724,0.015-0.2204,0.023-0.2306,0.033-0.2369,0.042-0.242,0.052-0.247,0.062-0.2508,0.072-0.2572,0.081-0.2585,0.089-0.2584,0.099-0.2572,0.1073-0.2572,0.1159-0.2572,0.1233-0.2559,0.1307-0.2508,0.1394-0.2471,0.1455-0.2432,0.1504-0.2382,0.1566-0.228,0.1616-0.2243,0.1677-0.2166,0.1714-0.2065,0.1738-0.1989,0.1764-0.1888,0.1763-0.1774,0.18-0.1672,0.1813-0.1571,0.18-0.1444,0.1764-0.1318,0.054-0.037,0.2096-0.019,0.3293-0.02,0.3526-0.011,0.3737,0,0.3884,0.01,0.3995,0.015,0.4045,0.025,0.4106,0.038,0.4131,0.048,0.4081,0.058,0.4008,0.07,0.3934,0.081,0.3785,0.091,0.402,0.1128,0.5179,0.1507,0.4994,0.1457,0.4254,0.1293,0.333,0.1127,0.143,0.057,0,0.1837-0.032,0.4624-0.3995,2.7822,1.8879,1.5671,0.4722,0.3256zm-48.776-3.5562,0.074,0.022,0.4584,0.1304,0.4557,0.128,0.4545,0.1254,0.4566,0.1229,0.2221,0.06,0.022,0.033,0.089,0.1457,0.1031,0.1812,0.1099,0.2103,0.1161,0.2343,0.1197,0.261,0.126,0.2889,0.127,0.3091,0.1288,0.3269,0.1294,0.3471,0.1313,0.3674,0.133,0.3851,0.1333,0.4004,0.1328,0.4142,0.1337,0.4295,0.1338,0.4409,0.016,0.055-0.3628-0.4168-0.7153-0.5777-0.6934-0.3763-0.6855-0.2319-0.6372-0.1127-0.3848-0.02,0.038-0.1925,0.064-0.9705-0.092-1.0135-0.2862-1.0224-0.252-0.4827z" stroke="#231f20" stroke-linecap="butt" stroke-miterlimit="2.61310005" stroke-width="1.01952875" fill="none"/>
   <g id="g22864" transform="matrix(0.12330988,0,0,-0.12669,2863.9612,-2079.2193)">
    <path id="path22866" stroke-linejoin="miter" style="stroke-dasharray:none;" d="m1831.9,901.84c-9.72,0-18.44-3.607-25.05-10.321-6.92-7.019-10.73-16.138-10.73-25.557,0-9.524,3.71-18.442,10.52-25.256,6.82-6.918,15.74-10.642,25.26-10.642,9.42,0,18.54,3.824,25.56,10.742,6.72,6.614,10.32,15.332,10.32,25.156,0,9.62-3.6,18.642-10.32,25.356-6.81,6.915-15.74,10.522-25.56,10.522zm31.98-35.978c0-8.722-3.11-16.438-9.12-22.25-6.32-6.217-14.44-9.524-22.86-9.524s-16.33,3.307-22.45,9.424c-6.11,6.112-9.42,14.029-9.42,22.45,0,8.417,3.41,16.438,9.62,22.751,5.92,5.912,13.63,9.219,22.25,9.219,8.72,0,16.74-3.307,22.86-9.42,5.91-5.916,9.12-13.932,9.12-22.65zm-30.87,21.348-15.14,0,0-41.293,6.21,0,0,18.141,9.63,0,8.72-18.141,7.11,0-9.22,19.043c6.01,0.801,9.72,5.11,9.72,10.822,0,7.917-5.61,11.428-17.03,11.428zm-1.21-4.209c8.12,0,11.83-2.108,11.83-7.62,0-5.611-3.71-7.215-11.83-7.215h-7.72v14.835h7.72z" stroke="#231f20" stroke-linecap="butt" stroke-miterlimit="2.61310005" stroke-width="8.13288021" fill="none"/>
   </g>
   <path id="path22868" fill-rule="nonzero" fill="#FFF" d="m3089.9-2193.5c-1.1988,0-2.275,0.457-3.09,1.3076-0.8538,0.8892-1.3238,2.0444-1.3238,3.2378,0,1.2066,0.4575,2.3365,1.2988,3.1997,0.84,0.8765,1.94,1.3482,3.115,1.3482,1.1612,0,2.285-0.4844,3.1512-1.3609,0.8275-0.8379,1.2725-1.9424,1.2725-3.187,0-1.2188-0.445-2.3618-1.2725-3.2124-0.8412-0.876-1.9412-1.333-3.1512-1.333zm3.9412,4.5581c0,1.105-0.3825,2.0825-1.1237,2.8189-0.7788,0.7875-1.78,1.2065-2.8175,1.2065-1.0388,0-2.015-0.419-2.7688-1.1939-0.7537-0.7743-1.1625-1.7773-1.1625-2.8442,0-1.0664,0.42-2.0825,1.1863-2.8823,0.73-0.7491,1.6812-1.168,2.745-1.168,1.075,0,2.0625,0.4189,2.8175,1.1934,0.7287,0.7495,1.1237,1.7651,1.1237,2.8696zm-3.8062-2.7046-1.8663,0,0,5.2315,0.7663,0,0-2.2984,1.1862,0,1.075,2.2984,0.8775,0-1.1362-2.4126c0.7412-0.1016,1.1987-0.6475,1.1987-1.3711,0-1.0029-0.6925-1.4478-2.1012-1.4478zm-0.1488,0.5333c1.0013,0,1.4588,0.267,1.4588,0.9652,0,0.711-0.4575,0.9141-1.4588,0.9141h-0.9512v-1.8793h0.9512"/>
   <path id="path22872" stroke-linejoin="miter" style="stroke-dasharray:none;" d="m3084.9-2203.4c-8.7293,2.2808-20.789,4.4701-23.129-7.4797-0.3595-2.0072-0.4496-4.0144,0.1803-5.6574,2.7903-5.837,5.1298-6.3859,12.24-5.7472,2.2493,1.0042,2.4296,3.4668,1.98,6.3859,0.2693,0.5477,1.6194,0.4566,1.8899-0.2732,0-3.1923,1.0796-5.474,3.5105-6.9335,0-1.9149-1.3501-3.0102-2.2506-3.2834-1.2599,2.0072-2.61,2.4625-4.4999,1.9149-5.5794-2.2805-11.61-3.8311-17.82,1.4595-6.1205,5.2008-5.1286,18.611,1.6206,22.899,2.9694,1.3682,5.8499,2.463,8.5501,2.8276,6.0303,0.8214,11.61-1.2773,19.079-5.8383,0.5411-1.0039-0.089-0.6382-0.4496-0.6382-0.2693,0.091-0.6299,0.273-0.9004,0.3643zm-52.199,6.7509c0.089,1.186,0.5398,1.7334,1.35,1.8242,3.8687-3.2836,8.1895-4.8349,13.229-3.4662,0.8103-0.274,0.7202-0.9126,0.4509-1.7329-2.4309-1.1865-2.8805-2.9195-3.151-4.8354-1.0796-5.0173-0.1804-10.4,0.09-15.509-0.1791-1.9162,0.9907-3.2847,2.61-4.5609-0.2692-0.5476-0.4496-1.1863-1.439-1.3685-4.1404,1.4596-8.2808,1.1851-12.241,0.2732-0.8103,0.1822-1.3501,0.6387-1.1697,1.7341,1.7095,0.8208,3.4202,1.8238,4.4096,3.9221,0.2706,6.6591,3.3302,19.979-4.1391,23.719zm-16.741-12.134c-0.63,0.1821-0.9005,0.7298-0.9894,1.4608,1.2599,0.2732,2.61,0.4554,3.5994,1.003,0.7201,0.9121,0.9906,2.1889,0.3607,3.4663-0.8103,1.5508-2.4309,1.7334-3.8712,2.0072-3.7797,0.3648-7.5595-0.1826-9.899-2.6459-1.8911-1.9155-2.8805-5.2914-2.7001-8.6671,0-3.831,2.5198-8.2097,5.7598-10.034,1.7997-0.2744,4.8593-0.2744,7.3803,0.5464,2.9695,0.8209,5.22,1.0953,4.4097,6.0217,0.4496,0.4553,1.0796,0.7298,1.7997,0.091,0.5398-2.6459,1.1698-5.1995,3.24-7.4812-0.2693-1.094-0.5398-2.0983-1.5304-2.5536-1.2587,0.9119-3.2388,2.2804-5.4893,2.0983-2.5198-0.4566-4.59-1.734-7.1099-2.1893-5.8499-0.1834-10.89,0.091-14.49,5.3816-1.8899,3.5579-2.4297,7.8455-1.3501,12.955,1.3501,3.9219,3.7797,6.9326,7.4706,8.7568,1.7095,1.5508,3.96,1.8247,6.3897,1.2773,1.8899-0.9125,4.59-1.4594,6.9295-1.6421,2.8805-0.2738,4.4109,1.0953,6.2996,3.3751,0.7213,0.4565,1.3501,0.2738,1.98,0-2.069-5.747-0.2693-9.3046,4.1404-11.585,0.2705-1.0953-0.2692-1.643-1.1697-1.9162-3.6896,0.4553-7.3804,0.6387-11.16,0.2732zm-55.26-14.961c3.4199,2.5549,8.0097,3.9234,12.78,5.2008,1.98,0.8209,3.42,6.0204,4.8603,11.586,0.2701,2.8276,0.3599,5.291,0.3599,7.5718,0.27,1.1855,0.81,1.4594,1.35,1.5512,2.5201-0.8213,5.2198-1.3691,10.71,0.3643,0.809,0.092,1.3501-0.091,1.1697-1.1856-8.2803-12.589-7.5601-17.242-8.7301-23.536-0.8998-2.1893-1.8901-2.0982-2.8798-2.0982-6.2099,0.4553-12.42,0.6374-18.72-1.4609-0.7201,0.5477-1.2596,1.1864-0.8998,2.0072zm5.8501,12.042c-0.9004,2.1893-4.8603,8.0283-2.1602,7.1157,0.4503-0.5468,1.3501-1.2762,2.2506-2.0072,0.8993-0.7286,1.7992-1.5507,2.6997-1.8239,0.5395-0.091,0.9897-0.1834,1.4398,0.091,1.2598,0.8208,0.9898,3.3753,0.7198,4.6526-1.3501,0.8209-1.8901,1.2769-2.5201,2.463-1.3501,2.372-1.3501,3.9227-4.1395,3.9227-2.3409-0.091-3.8707,0.091-5.5801,0-1.0802-0.091-1.8902-1.186-1.98-2.7362-0.27-4.4703,4.3197-7.7544,5.3999-12.59,0.2701-1.4596,0.9004-2.0983,1.4399-2.1894,1.0801-0.2732,3.6002-0.2732,2.4302,3.1013zm-34.02,4.8353c0.4497,0.1834,0.9897-0.091,1.5298-0.8209,1.4399-0.091,2.5199,0.6387,3.33,2.0072,3.0601,4.9261,5.7598,10.764,7.92,17.789,0.6298,3.0103,0.9902,5.7471-0.4497,7.2983-1.3501,1.186-2.7002,2.4629-3.9605,3.1929-0.3599,1.3682,0,1.9155,1.2603,1.8242,1.2597-1.0034,2.8799-1.7334,4.77-2.2802,3.5097-0.6392,6.4799-0.6392,9.54-0.4566,2.4297,0.3653,4.8598,0.8209,7.2901,1.916,1.2597,0.3648,2.2499-0.4566,1.6196-1.5507-2.8804-3.0108-6.75-4.105-8.0996-8.1192-2.7901-11.039-8.1002-22.716-12.24-30.105-0.5402-2.1893-0.5402-4.4697-0.7198-6.7514,0.1796-2.006-0.1807-2.9191-2.1601-2.1894-1.2603,0.4566-2.5201,0.2745-3.7804,0.092-3.5995-0.6387-5.4897-0.5477-8.7299-0.9132-0.7198,0-1.6196,1.643-0.8101,2.1893,1.3501,0.9132,2.7901,1.8251,4.0503,2.737,0.9898,1.1864,1.71,2.5549,1.5298,4.4698-1.2598,1.9162-2.4297,3.9234-3.96,5.474-0.4497,0.5477-0.81,0.7298-0.8998,1.2774,0,0.7298,0.6298,1.4596,1.2603,2.0073,0.54,0.4565,0.8998,0.9119,1.7099,0.9119zm-37.17-2.2804c0,0.9119,3.9604,3.1923,4.8603,1.1851,0.4497-0.5464,0.81-1.1851,1.17-1.9149,0.81-1.9162,0.6298-2.646,3.1499-1.4596,8.4599,4.0144,15.12,30.287,15.75,37.311,0,1.2773,0.9901,2.0986,1.7099,1.3687,2.6104-2.3721,5.1299-4.7437,7.7402-7.1162,1.0802-0.7296,1.2598-1.6416,1.44-2.463-0.9-2.2802-1.8901-4.6527-3.1499-7.0238-2.9702-5.9302,0.4497-9.0317,0.8998-14.688-0.3598-1.6421-2.8799-4.0144-3.6899-3.0102-1.4399,4.0141-2.79,4.0141-3.6899,2.7367-4.0503-6.6588-10.8-20.16-13.5-20.069-4.6802,0.5463-8.1001,0.2731-12.871-0.1834-0.8096,0.092-2.0699,1.6429-2.0699,2.0995,3.3301,0.4553,5.6705,1.7328,5.3102,5.6549-0.9898,3.8323-2.0699,5.9293-3.0601,7.5723zm-16.83,32.932c-0.7203,1.0038,0,2.4633,0.9898,2.0986,3.4199-2.646,8.1899-4.1055,15.03-3.2842,1.0796-0.092,1.0796-2.2807,0-2.5547-0.9902-0.091-1.8901-0.456-2.4306-1.642-0.9898-5.8384,1.3506-12.68,6.0301-20.708,0.9005-1.0039-3.5995-3.3754-4.2299-2.1895-2.1597,6.75-4.5,13.045-6.9297,19.157-2.0703,3.2847-4.0502,7.1157-8.4599,9.1226z" clip-path="none" mask="none" stroke="#231f20" stroke-linecap="butt" stroke-miterlimit="2.61310005" stroke-width="1.02114952" fill="url(#linearGradient23343)"/>
   <g id="g22858" transform="matrix(0.12330988,0,0,-0.12669,2863.9612,-2077.2193)">
    <path id="path22860" stroke-linejoin="miter" style="stroke-dasharray:none;" d="m889.61,860.08,8.787,0,0.507-3.172,49.406,0,0.385,3.172,8.786,0,1.81-26.544-8.427,0c-0.574,3.955-1.888,6.888-3.955,8.823-2.063,1.938-4.91,2.894-8.569,2.894h-1.553v-65.547h7.528v-9.72h-41.542v9.72h7.531v65.547h-1.552c-3.615,0-6.442-0.956-8.486-2.875-2.043-1.908-3.362-4.845-3.936-8.842h-8.525l1.805,26.544zm110.86-2.043,0-8.043-4.682-1.484,0-25.079c4.402,3.704,8.492,6.467,12.272,8.275,3.79,1.803,7.29,2.698,10.53,2.698,5.61,0,10-1.7,13.14-5.076,3.17-3.384,4.75-8.106,4.75-14.164v-37.27h4.48v-7.908h-31.65v7.908h4.43v33.327c0,2.702-0.58,4.744-1.72,6.109-1.13,1.38-2.85,2.062-5.13,2.062-1.78,0-3.66-0.444-5.59-1.338-1.92-0.898-3.769-2.154-5.512-3.765v-36.395h4.422v-7.908h-31.645v7.908h4.486v63.32l-4.486-1.426v8.04l31.905,10.209zm100.68-53.364-24.74-10.079c1.88-3.7,4.2-6.486,6.96-8.383,2.77-1.892,5.94-2.828,9.51-2.828,2.89,0,5.61,0.531,8.14,1.614,2.53,1.087,4.89,2.706,7.05,4.876l4.61-4.937c-4.4-5.677-9.23-9.909-14.52-12.657-5.28-2.744-11.15-4.101-17.64-4.101-8.72,0-15.87,3.079-21.42,9.25-5.57,6.166-8.36,14.037-8.36,23.587,0,9.42,3.05,17.355,9.13,23.757,6.08,6.421,13.4,9.632,21.91,9.632,4.36,0,8.38-0.829,12.01-2.463,3.66-1.642,6.89-4.086,9.68-7.315,2.32-2.617,4.3-5.616,5.93-8.981,1.64-3.356,2.47-5.677,2.47-6.972,0-0.493-1.21-1.048-3.62-1.661-2.4-0.593-4.76-1.383-7.1-2.339zm-11.95,5.997c-1.4,4.405-3.13,7.762-5.14,10.121-2.01,2.343-4.2,3.511-6.51,3.511-1.96,0-3.5-0.848-4.58-2.552-1.1-1.703-1.66-4.062-1.66-7.103,0-1.873,0.15-3.7,0.47-5.484,0.32-1.788,0.77-3.492,1.34-5.111l16.08,6.618zm119.63,2.42-14.82,0,0,9.343,29.22,0c1.66,0,3.26,0.127,4.79,0.408,1.55,0.274,3.04,0.675,4.49,1.207l3.48-5.847c-1.13-1.21-1.95-2.471-2.49-3.77-0.53-1.314-0.8-2.678-0.8-4.143v-40.302h-7.04l-5.74,9.165c-4.24-3.616-8.79-6.364-13.68-8.21-4.87-1.853-10.01-2.763-15.42-2.763-11.51,0-20.76,3.742-27.73,11.204-6.98,7.489-10.47,17.424-10.47,29.8,0,6.548,1.04,12.696,3.13,18.4,2.06,5.719,5.12,10.799,9.15,15.243,4.39,4.979,9.61,8.849,15.6,11.601,6,2.736,12.26,4.101,18.74,4.101,4.11,0,8.06-0.644,11.83-1.939,3.79-1.272,7.31-3.191,10.61-5.72l4.98,3.103,5.23-7.905-26.8-17.656-4.98,6.934c0.58,0.613,1.03,1.314,1.34,2.085,0.33,0.763,0.47,1.549,0.47,2.34,0,2.081-0.78,3.831-2.34,5.276-1.55,1.422-3.51,2.143-5.83,2.143-4.7,0-8.48-2.213-11.37-6.652-2.9-4.448-4.34-10.403-4.34-17.826,0-10.807,2.44-19.868,7.31-27.202,4.9-7.339,10.93-10.996,18.13-10.996,1.16,0.038,2.17,0.104,2.99,0.189,0.83,0.084,1.62,0.235,2.36,0.489v27.9zm73.47-9.909c-0.96,0.127-1.68,0.239-2.2,0.301-0.49,0.062-0.82,0.085-0.97,0.085-3.51,0-6.26-1.064-8.24-3.215-1.99-2.123-2.99-5.037-2.99-8.675,0-3.253,0.59-5.701,1.81-7.358,1.21-1.657,2.99-2.49,5.35-2.49,2.21,0,3.98,0.748,5.31,2.213,1.33,1.464,1.99,3.426,1.99,5.831l-0.06,13.308zm-21.25,33.905,6.72-2.42-1.23-3.558c2.48,1.064,5.08,1.897,7.8,2.452,2.72,0.57,5.51,0.844,8.38,0.844,6.89,0,12.34-1.804,16.33-5.423,3.98-3.619,5.98-8.549,5.98-14.8v-36.287h4.49v-7.908h-25.29l-1.74,5.973c-2.92-2.57-5.83-4.509-8.76-5.823-2.94-1.303-5.85-1.958-8.77-1.958-6.02,0-10.91,1.846-14.67,5.546-3.77,3.704-5.64,8.444-5.64,14.272,0,7.681,2.7,13.443,8.12,17.293,5.43,3.847,13.56,5.762,24.36,5.762,0.66,0,1.38,0,2.15-0.023,0.76-0.015,1.76-0.104,3.02-0.231l0.06,3.384c0,2.016-0.72,3.638-2.19,4.872-1.45,1.21-3.4,1.826-5.85,1.826-2.61,0-5.12-0.678-7.55-2.023-2.4-1.334-4.59-3.295-6.53-5.87l-7.55,2.914,8.36,21.186zm81.73,11.532,6.43-1.43,0-15.209,11.08,0-1.3-7.353c-0.17-1.261-0.38-2.001-0.64-2.278-0.23-0.278-0.66-0.409-1.23-0.409h-7.91v-32.193c0-3.195,0.43-5.469,1.25-6.787,0.83-1.338,2.24-1.997,4.23-1.997,0.75,0,1.54,0.143,2.39,0.443,0.85,0.278,1.81,0.744,2.83,1.361l3.32-4.872c-3.07-3.145-6.36-5.569-9.86-7.23-3.48-1.661-6.97-2.486-10.46-2.486-5.8,0-10.01,1.38-12.63,4.147-2.62,2.763-3.93,7.25-3.93,13.482v36.132h-5.85v7.235c5.63,1.657,10.33,4.108,14.03,7.361,3.73,3.234,6.47,7.25,8.25,12.083zm59.22,9.419,0-8.043-4.68-1.484,0-25.079c4.4,3.704,8.48,6.467,12.27,8.275,3.79,1.803,7.29,2.698,10.53,2.698,5.61,0,9.99-1.7,13.14-5.076,3.17-3.384,4.75-8.106,4.75-14.164v-37.27h4.48v-7.908h-31.64v7.908h4.42v33.327c0,2.702-0.57,4.744-1.72,6.109-1.13,1.38-2.85,2.062-5.13,2.062-1.78,0-3.66-0.444-5.59-1.338-1.92-0.898-3.76-2.154-5.51-3.765v-36.395h4.43v-7.908h-31.65v7.908h4.49v63.32l-4.49-1.426v8.04l31.9,10.209zm100.69-53.364-24.74-10.079c1.87-3.7,4.19-6.486,6.95-8.383,2.77-1.892,5.94-2.828,9.51-2.828,2.89,0,5.61,0.531,8.15,1.614,2.52,1.087,4.89,2.706,7.04,4.876l4.61-4.937c-4.4-5.677-9.23-9.909-14.53-12.657-5.27-2.744-11.14-4.101-17.63-4.101-8.72,0-15.86,3.079-21.41,9.25-5.58,6.166-8.37,14.037-8.37,23.587,0,9.42,3.05,17.355,9.13,23.757,6.09,6.421,13.4,9.632,21.91,9.632,4.36,0,8.38-0.829,12.01-2.463,3.66-1.642,6.9-4.086,9.68-7.315,2.32-2.617,4.3-5.616,5.94-8.981,1.63-3.356,2.46-5.677,2.46-6.972,0-0.493-1.21-1.048-3.61-1.661-2.4-0.593-4.76-1.383-7.1-2.339zm-11.96,5.997c-1.4,4.405-3.12,7.762-5.15,10.121-2,2.343-4.18,3.511-6.5,3.511-1.96,0-3.49-0.848-4.58-2.552-1.1-1.703-1.66-4.062-1.66-7.103,0-1.873,0.15-3.7,0.47-5.484,0.32-1.788,0.77-3.492,1.34-5.111l16.08,6.618zm79.23,24.35,6.78-2.358-7.53-21.31c-2.44,0.956-4.53,1.661-6.21,2.127-1.68,0.444-3.1,0.679-4.25,0.679-2.54,0-4.53-0.867-5.98-2.598-1.47-1.715-2.19-4.078-2.19-7.118v-26.548h6.49v-7.908h-33.65v7.908h4.43v32.032c0,1.661-0.16,2.786-0.45,3.365-0.28,0.57-0.83,1.125-1.61,1.615l-2.37-1.939-4.61,5.126,13.78,16.311c3.85-1.785,6.91-3.72,9.19-5.782,2.25-2.085,3.86-4.443,4.82-7.103,3.6,5.508,6.3,9.034,8.06,10.591,1.77,1.53,3.62,2.294,5.58,2.294,1.08,0,2.34-0.193,3.76-0.594,1.45-0.382,2.96-0.96,4.6-1.7l1.36,2.91zm39.19-0.616,0.88,0c-0.19-2.698-0.36-4.914-0.47-6.633-0.11-1.723-0.15-3.168-0.15-4.34v-45.537h4.42v-7.908h-31.58v7.908h4.42v42.731l-4.42-0.744v7.103l26.9,7.42zm-8.84,19.829c3.04,0,5.48-0.705,7.33-2.131,1.85-1.407,2.77-3.211,2.77-5.423,0-2.995-1.53-5.55-4.57-7.654-3.07-2.128-6.73-3.195-11.02-3.195-2.62,0-4.7,0.663-6.3,2-1.57,1.318-2.36,3.087-2.36,5.296,0,2.875,1.43,5.442,4.3,7.7,2.87,2.278,6.14,3.407,9.85,3.407zm53.76-19.829,0.88,0-0.62-10.973c4.4,3.704,8.49,6.448,12.27,8.252,3.79,1.807,7.29,2.721,10.53,2.721,5.61,0,10.02-1.7,13.21-5.076,3.21-3.384,4.8-8.106,4.8-14.164v-37.27h4.36v-7.908h-31.52v7.908h4.37v33.327c0,2.702-0.58,4.744-1.75,6.109-1.17,1.38-2.89,2.062-5.17,2.062-1.79,0-3.66-0.444-5.59-1.338-1.92-0.898-3.77-2.154-5.51-3.765v-36.395h4.42v-7.908h-31.58v7.908h4.42v42.731l-4.42-0.744v7.103l26.9,7.42zm76.04-15.822c0-6.717,1.32-12.765,3.93-18.118,2.62-5.361,5.49-8.044,8.6-8.044,2.04,0,3.63,0.787,4.76,2.34,1.15,1.553,1.72,3.727,1.72,6.51,0,6.852-1.32,12.826-3.93,17.952-2.62,5.099-5.64,7.654-9.11,7.654-1.87,0-3.32-0.72-4.38-2.189-1.06-1.445-1.59-3.488-1.59-6.105zm10.23-50.404c-0.98-1.364-1.72-2.748-2.19-4.109-0.49-1.379-0.72-2.763-0.72-4.189,0-2.151,0.46-3.827,1.42-5.041,0.96-1.21,2.28-1.812,3.93-1.812,1.41,0,2.53,0.447,3.36,1.345,0.84,0.895,1.24,2.082,1.24,3.569,0,2.259-0.62,4.275-1.87,6.086-1.23,1.811-2.96,3.191-5.17,4.151zm-32.52,10.206c4.7,1.044,9.02,2.212,12.95,3.488,3.94,1.295,7.41,2.701,10.4,4.189-6.76,1.445-12.12,4.297-16.08,8.533-3.93,4.232-5.91,9.227-5.91,14.947,0,7.064,2.91,12.976,8.72,17.736,5.83,4.749,13.04,7.127,21.7,7.127,2.19,0,4.29-0.124,6.29-0.386,1.98-0.25,3.87-0.613,5.66-1.121,1.39,4.74,2.87,7.87,4.49,9.423,1.62,1.53,4.12,2.293,7.53,2.293,0.68,0,1.38-0.038,2.16-0.123,0.77-0.093,1.51-0.216,2.26-0.362l-2.56-12.037c-1.01,0.571-1.86,0.971-2.54,1.21-0.66,0.235-1.24,0.339-1.75,0.339-0.74,0-1.33-0.188-1.76-0.551-0.45-0.385-0.66-0.871-0.66-1.51,0,0,1.89-2.236,5.68-6.68,3.76-4.467,5.65-9.462,5.65-14.992,0-7.019-2.68-12.85-8.06-17.46-5.38-4.64-13.73-8.344-25.08-11.126,10.81-1.365,18.59-3.446,23.4-6.233,4.79-2.786,7.19-6.552,7.19-11.335,0-4.852-2.57-8.976-7.69-12.337-5.14-3.361-11.45-5.041-18.98-5.041-6.51,0-11.59,1.06-15.23,3.211-3.64,2.127-5.45,5.102-5.45,8.937,0,2.825,1.02,5.25,3.04,7.315,2.05,2.062,5.05,3.635,8.98,4.76-2.24,0.343-4.06,0.578-5.48,0.729-1.41,0.146-2.7,0.212-3.86,0.212-1.08,0-2.23-0.066-3.42-0.212-1.21-0.151-2.55-0.386-4.06-0.729l-7.53,7.786z" stroke="#231f20" stroke-linecap="butt" stroke-miterlimit="2.61310005" stroke-width="8.34889984" fill="none"/>
   </g>
   <path id="path22862" fill-rule="evenodd" fill="#FFF" d="m2973.7-2186.2,1.0835,0,0.062,0.4019,6.0922,0,0.047-0.4019,1.0835,0,0.2231,3.3628-1.039,0c-0.071-0.501-0.233-0.8725-0.4879-1.1177-0.2543-0.2456-0.6053-0.3667-1.0566-0.3667h-0.1914v8.3042h0.9283v1.2314h-5.1226v-1.2314h0.9287v-8.3042h-0.1914c-0.4458,0-0.7945,0.1211-1.0463,0.3642-0.252,0.2418-0.4147,0.6139-0.4854,1.1202h-1.0513l0.2227-3.3628zm13.669,0.2588,0,1.0191-0.5771,0.188,0,3.1771c0.543-0.4691,1.0469-0.8192,1.5133-1.0482,0.4672-0.2285,0.9-0.3419,1.2987-0.3419,0.6925,0,1.2325,0.2154,1.62,0.6431,0.3913,0.4288,0.585,1.0269,0.585,1.7944v4.7217h0.5538v1.0019h-3.9028v-1.0019h0.5453v-4.2222c0-0.3423-0.071-0.601-0.2123-0.7739-0.1386-0.1747-0.3511-0.2612-0.6324-0.2612-0.2196,0-0.4511,0.056-0.6893,0.1695-0.2364,0.1137-0.4644,0.2728-0.6793,0.477v4.6108h0.5455v1.0019h-3.9024v-1.0019h0.5533v-8.022l-0.5533,0.1807v-1.0185l3.934-1.2935zm12.416,6.7607-3.0513,1.2769c0.2313,0.4687,0.5175,0.8217,0.8575,1.062,0.3413,0.2397,0.7325,0.3584,1.1738,0.3584,0.3562,0,0.6912-0.067,1.0037-0.2045,0.3113-0.1378,0.6025-0.3429,0.8688-0.6178l0.5687,0.6255c-0.5437,0.7193-1.1387,1.2554-1.7912,1.6035-0.65,0.3476-1.375,0.5195-2.175,0.5195-1.075,0-1.9563-0.3901-2.6413-1.1719-0.6862-0.7812-1.03-1.7782-1.03-2.9882,0-1.1934,0.375-2.1988,1.125-3.0098,0.75-0.8135,1.6525-1.2202,2.7013-1.2202,0.5375,0,1.0337,0.105,1.4812,0.312,0.4513,0.2081,0.85,0.5176,1.1938,0.9269,0.2862,0.3315,0.53,0.7113,0.7312,1.1376,0.2025,0.4252,0.305,0.7192,0.305,0.8834,0,0.062-0.15,0.1327-0.4462,0.2103-0.2963,0.075-0.5875,0.1753-0.875,0.2964zm-1.475-0.7597c-0.1725-0.5582-0.385-0.9834-0.6338-1.2823-0.2475-0.2969-0.5175-0.4447-0.8025-0.4447-0.2412,0-0.4312,0.1073-0.565,0.3232-0.135,0.2158-0.2037,0.5146-0.2037,0.8999,0,0.2372,0.017,0.4687,0.057,0.6947,0.04,0.2267,0.095,0.4424,0.165,0.6475l1.9825-0.8383zm14.752-0.3067-1.8275,0,0-1.1836,3.6037,0c0.2038,0,0.4-0.016,0.59-0.052,0.1913-0.035,0.375-0.085,0.5525-0.1529l0.43,0.7407c-0.1387,0.1534-0.2412,0.313-0.3075,0.4777-0.065,0.1665-0.099,0.3392-0.099,0.5248v5.1059h-0.8675l-0.7088-1.1611c-0.5212,0.458-1.0837,0.8062-1.6862,1.0401-0.6,0.2349-1.235,0.35-1.9013,0.35-1.4187,0-2.56-0.474-3.42-1.4194-0.86-0.9487-1.29-2.2075-1.29-3.7753,0-0.8297,0.1275-1.6084,0.385-2.3312,0.255-0.7245,0.6325-1.3681,1.1275-1.9311,0.5425-0.6309,1.1863-1.1211,1.925-1.4697,0.74-0.3467,1.5113-0.5195,2.3113-0.5195,0.5062,0,0.9937,0.082,1.4575,0.2456,0.4675,0.1611,0.9025,0.4042,1.3087,0.7246l0.6138-0.3931,0.645,1.0015-3.3038,2.2369-0.6137-0.8785c0.07-0.078,0.125-0.1665,0.165-0.2642,0.04-0.097,0.057-0.1962,0.057-0.2963,0-0.2637-0.097-0.4854-0.2888-0.6685-0.1912-0.1802-0.4325-0.2715-0.7187-0.2715-0.5788,0-1.045,0.2803-1.4025,0.8428-0.3563,0.5634-0.535,1.3179-0.535,2.2583,0,1.3691,0.3012,2.5171,0.9012,3.4462,0.605,0.9298,1.3488,1.3932,2.235,1.3932,0.145,0,0.2675-0.013,0.37-0.024s0.2-0.03,0.2913-0.062v-3.5347zm9.0587,1.2554c-0.1175-0.016-0.2075-0.03-0.2712-0.038-0.06-0.01-0.1013-0.011-0.1188-0.011-0.4337,0-0.7725,0.1348-1.0162,0.4073-0.2463,0.269-0.37,0.6382-0.37,1.0991,0,0.4121,0.074,0.7221,0.2237,0.9321,0.1488,0.21,0.37,0.3155,0.66,0.3155,0.2725,0,0.4913-0.095,0.6538-0.2803,0.165-0.1855,0.2462-0.434,0.2462-0.7388l-0.01-1.686zm-2.62-4.2954,0.8288,0.3067-0.1525,0.4506c0.3062-0.1348,0.6275-0.2403,0.9625-0.3105,0.3362-0.072,0.68-0.107,1.0337-0.107,0.85,0,1.5213,0.2286,2.0138,0.687,0.49,0.4585,0.7375,1.0831,0.7375,1.875v4.5972h0.5525v1.0019h-3.1175l-0.2163-0.7567c-0.3587,0.3256-0.7187,0.5712-1.08,0.7377-0.3612,0.165-0.7212,0.248-1.08,0.248-0.7425,0-1.345-0.2339-1.81-0.7026-0.4637-0.4693-0.695-1.0698-0.695-1.808,0-0.9733,0.3338-1.7031,1.0025-2.191,0.6688-0.4873,1.67-0.73,3.0025-0.73h0.265c0.094,0,0.2175,0.013,0.3725,0.029l0.01-0.4287c0-0.2553-0.089-0.4609-0.27-0.6171-0.1787-0.1534-0.42-0.2315-0.7212-0.2315-0.3225,0-0.6313,0.086-0.9313,0.2563-0.2962,0.169-0.5662,0.4175-0.805,0.7437l-0.9312-0.3692,1.0312-2.684zm10.079-1.461,0.7925,0.1812,0,1.9267,1.365,0-0.1588,0.9318c-0.021,0.1596-0.048,0.2533-0.079,0.2885-0.029,0.035-0.081,0.052-0.1525,0.052h-0.975v4.0786c0,0.4048,0.053,0.6929,0.1537,0.8599,0.1025,0.1694,0.2763,0.2529,0.5225,0.2529,0.091,0,0.1888-0.018,0.2938-0.056,0.105-0.035,0.2225-0.094,0.3487-0.1724l0.4088,0.6172c-0.3775,0.3984-0.7838,0.7055-1.215,0.916-0.4288,0.2105-0.8588,0.3149-1.29,0.3149-0.715,0-1.2338-0.1747-1.5575-0.5254-0.3225-0.35-0.485-0.9183-0.485-1.708v-4.5776h-0.7213v-0.9165c0.695-0.21,1.275-0.5205,1.7313-0.9326,0.4587-0.4096,0.7975-0.9184,1.0175-1.5308zm7.3012-1.1933,0,1.0191-0.5775,0.188,0,3.1771c0.5438-0.4691,1.0475-0.8192,1.5138-1.0482,0.4675-0.2285,0.9-0.3419,1.2987-0.3419,0.6925,0,1.2325,0.2154,1.62,0.6431,0.3913,0.4288,0.5863,1.0269,0.5863,1.7944v4.7217h0.5525v1.0019h-3.9025v-1.0019h0.545v-4.2222c0-0.3423-0.07-0.601-0.2113-0.7739-0.14-0.1747-0.3512-0.2612-0.6325-0.2612-0.22,0-0.4512,0.056-0.69,0.1695-0.2362,0.1137-0.4637,0.2728-0.68,0.477v4.6108h0.5463v1.0019h-3.9025v-1.0019h0.5537v-8.022l-0.5537,0.1807v-1.0185l3.9337-1.2935zm12.416,6.7607-3.0513,1.2769c0.2313,0.4687,0.5175,0.8217,0.8575,1.062,0.3413,0.2397,0.7325,0.3584,1.1725,0.3584,0.3575,0,0.6925-0.067,1.005-0.2045,0.3113-0.1378,0.6038-0.3429,0.8688-0.6178l0.5687,0.6255c-0.5425,0.7193-1.1387,1.2554-1.7912,1.6035-0.6513,0.3476-1.375,0.5195-2.1738,0.5195-1.0762,0-1.9575-0.3901-2.6412-1.1719-0.6875-0.7812-1.0313-1.7782-1.0313-2.9882,0-1.1934,0.375-2.1988,1.125-3.0098,0.7513-0.8135,1.6525-1.2202,2.7013-1.2202,0.5375,0,1.0337,0.105,1.4825,0.312,0.45,0.2081,0.85,0.5176,1.1925,0.9269,0.2862,0.3315,0.53,0.7113,0.7325,1.1376,0.2012,0.4252,0.3037,0.7192,0.3037,0.8834,0,0.062-0.1487,0.1327-0.445,0.2103-0.2975,0.075-0.5875,0.1753-0.8762,0.2964zm-1.475-0.7597c-0.1725-0.5582-0.385-0.9834-0.6338-1.2823-0.2475-0.2969-0.5162-0.4447-0.8025-0.4447-0.2412,0-0.43,0.1073-0.5637,0.3232-0.1363,0.2158-0.205,0.5146-0.205,0.8999,0,0.2372,0.019,0.4687,0.058,0.6947,0.04,0.2267,0.094,0.4424,0.165,0.6475l1.9825-0.8383zm9.77-3.085,0.8362,0.2988-0.9275,2.6998c-0.3025-0.1211-0.5587-0.2105-0.7662-0.2696-0.2075-0.056-0.3825-0.086-0.525-0.086-0.3125,0-0.5588,0.1099-0.7375,0.3291-0.1813,0.2173-0.2688,0.5166-0.2688,0.9019v3.3632h0.8v1.0019h-4.15v-1.0019h0.5463v-4.0581c0-0.2105-0.019-0.353-0.055-0.4262-0.035-0.072-0.1025-0.1427-0.1988-0.2047l-0.2925,0.2457-0.5687-0.6494,1.6987-2.0665c0.475,0.2261,0.8525,0.4712,1.1338,0.7325,0.2775,0.2641,0.4775,0.563,0.595,0.8999,0.4437-0.6978,0.7762-1.1445,0.9937-1.3418,0.2188-0.1939,0.4463-0.2906,0.6875-0.2906,0.1338,0,0.2888,0.024,0.465,0.075,0.1788,0.048,0.3638,0.1217,0.5663,0.2154l0.1675-0.3687zm4.8325,0.078,0.1087,0c-0.024,0.3419-0.045,0.6226-0.059,0.8404-0.012,0.2182-0.017,0.4013-0.017,0.5497v5.7691h0.545v1.0019h-3.895v-1.0019h0.5462v-5.4136l-0.5462,0.094v-0.8999l3.3175-0.94zm-1.09-2.5121c0.375,0,0.6762,0.089,0.905,0.27,0.2275,0.1782,0.34,0.4067,0.34,0.687,0,0.3793-0.1875,0.7031-0.5625,0.9697-0.3788,0.2695-0.83,0.4048-1.36,0.4048-0.3213,0-0.5788-0.084-0.7763-0.2534-0.1937-0.167-0.2912-0.3911-0.2912-0.6709,0-0.3644,0.1762-0.6895,0.5312-0.9756,0.3538-0.2886,0.7575-0.4316,1.2138-0.4316zm6.6287,2.5121,0.1088,0-0.076,1.3901c0.5425-0.4691,1.0463-0.8169,1.5138-1.0454,0.4662-0.229,0.8987-0.3447,1.2975-0.3447,0.6925,0,1.2362,0.2154,1.6287,0.6431,0.3963,0.4288,0.5925,1.0269,0.5925,1.7944v4.7217h0.5375v1.0019h-3.8862v-1.0019h0.5375v-4.2222c0-0.3423-0.071-0.601-0.215-0.7739-0.1438-0.1747-0.3563-0.2612-0.6375-0.2612-0.22,0-0.4513,0.056-0.69,0.1695-0.2363,0.1137-0.4638,0.2728-0.6788,0.477v4.6108h0.545v1.0019h-3.895v-1.0019h0.5463v-5.4136l-0.5463,0.094v-0.8999l3.3175-0.94zm9.3775,2.0045c0,0.851,0.1625,1.6171,0.4838,2.2954,0.3237,0.6791,0.6775,1.019,1.06,1.019,0.2525,0,0.4487-0.1,0.5875-0.2964,0.1425-0.1968,0.2125-0.4721,0.2125-0.8248,0-0.8681-0.1625-1.625-0.485-2.2743-0.3225-0.646-0.695-0.9698-1.1225-0.9698-0.23,0-0.4088,0.091-0.54,0.2774-0.1313,0.1831-0.1963,0.4419-0.1963,0.7735zm1.2613,6.3856c-0.1213,0.1729-0.2125,0.3483-0.27,0.5206-0.06,0.1748-0.09,0.35-0.09,0.5308,0,0.2724,0.058,0.4849,0.1762,0.6386,0.1188,0.1534,0.2813,0.2295,0.485,0.2295,0.1738,0,0.3113-0.057,0.415-0.1704,0.1025-0.1133,0.1513-0.2637,0.1513-0.4522,0-0.2861-0.076-0.5415-0.23-0.7709-0.1525-0.2295-0.365-0.4044-0.6375-0.526zm-4.01-1.2929c0.5787-0.1323,1.1125-0.2802,1.5962-0.4418,0.4863-0.1642,0.9138-0.3424,1.2838-0.5309-0.835-0.183-1.4963-0.5444-1.9838-1.081-0.485-0.5361-0.7287-1.169-0.7287-1.8935,0-0.8951,0.36-1.6441,1.075-2.2471,0.7187-0.6015,1.6087-0.9029,2.675-0.9029,0.27,0,0.53,0.016,0.7775,0.049,0.2425,0.032,0.4762,0.078,0.6962,0.1421,0.1713-0.6006,0.355-0.9971,0.5538-1.1939,0.2-0.1939,0.5087-0.2905,0.9287-0.2905,0.084,0,0.17,0,0.2675,0.016,0.094,0.012,0.1863,0.027,0.2775,0.046l-0.315,1.5249c-0.125-0.072-0.23-0.123-0.3137-0.1533-0.081-0.03-0.1525-0.043-0.215-0.043-0.093,0-0.165,0.024-0.2175,0.07-0.056,0.049-0.081,0.1104-0.081,0.1915,0,0,0.2325,0.2831,0.7,0.8461,0.4638,0.566,0.6975,1.1988,0.6975,1.8995,0,0.8891-0.3312,1.6279-0.995,2.2119-0.6625,0.5879-1.6925,1.0571-3.0912,1.4096,1.3325,0.1729,2.2925,0.4365,2.885,0.7896,0.59,0.353,0.8862,0.83,0.8862,1.436,0,0.6148-0.3162,1.1373-0.9487,1.563-0.6325,0.4258-1.4113,0.6387-2.34,0.6387-0.8025,0-1.4288-0.1343-1.8775-0.4068-0.4488-0.2695-0.6725-0.6465-0.6725-1.1322,0-0.358,0.1262-0.6652,0.375-0.9268,0.2525-0.2612,0.6225-0.4605,1.1075-0.6031-0.2763-0.043-0.5-0.073-0.6763-0.092-0.1737-0.019-0.3325-0.027-0.475-0.027-0.1337,0-0.275,0.01-0.4225,0.027-0.1487,0.019-0.315,0.049-0.5,0.092l-0.9287-0.9863"/>
  </g>
 </g>
</svg>